<svg width="100%" height="100%" viewBox="0 0 64 64" version="1.1"
  xmlns="http://www.w3.org/2000/svg"
  xmlns:xlink="http://www.w3.org/1999/xlink" xml:space="preserve"
  xmlns:serif="http://www.serif.com/" style="fill-rule:evenodd;clip-rule:evenodd;stroke-linejoin:round;stroke-miterlimit:2;">
  <path d="M34.289,10.16c0,-1.25 -0.228,-2.102 -0.679,-2.557c-0.457,-0.455 -0.988,-0.686 -1.61,-0.686c-0.616,0 -1.153,0.231 -1.61,0.686c-0.451,0.455 -0.673,0.996 -0.673,1.618c0,0.628 0.222,1.169 0.673,1.624c0.457,0.455 0.994,0.686 1.61,0.686c0.622,0 1.381,-0.455 2.289,-1.371Zm29.711,32.507l0,12.682c0,0.53 -0.234,0.893 -0.714,1.083c-0.188,0.052 -0.331,0.075 -0.428,0.075c-0.308,0 -0.582,-0.109 -0.822,-0.328l-3.322,-3.347c-2.831,3.433 -6.621,6.152 -11.376,8.162c-4.749,2.004 -9.864,3.006 -15.338,3.006c-5.474,0 -10.589,-1.002 -15.338,-3.006c-4.749,-2.01 -8.545,-4.729 -11.376,-8.162l-3.322,3.347c-0.217,0.219 -0.491,0.328 -0.822,0.328c-0.097,0 -0.24,-0.023 -0.428,-0.075c-0.48,-0.19 -0.714,-0.553 -0.714,-1.083l0,-12.682c0,-0.334 0.108,-0.611 0.32,-0.829c0.217,-0.214 0.491,-0.323 0.822,-0.323l12.569,0c0.525,0 0.885,0.242 1.073,0.72c0.194,0.455 0.109,0.875 -0.251,1.261l-3.568,3.606c1.593,2.182 3.848,4.026 6.765,5.529c2.916,1.503 6.153,2.494 9.698,2.972l0,-23.315l-6.856,0c-0.622,0 -1.153,-0.23 -1.609,-0.685c-0.451,-0.455 -0.68,-0.997 -0.68,-1.619l0,-4.613c0,-0.628 0.229,-1.169 0.68,-1.624c0.456,-0.455 0.987,-0.686 1.609,-0.686l6.856,0l0,-5.874c-1.382,-0.818 -2.489,-1.924 -3.322,-3.33c-0.834,-1.405 -1.25,-2.948 -1.25,-4.63c0,-2.552 0.896,-4.723 2.682,-6.526c1.781,-1.802 3.939,-2.701 6.462,-2.701c2.523,0 4.681,0.899 6.467,2.701c1.787,1.803 2.677,3.974 2.677,6.526c0,1.682 -0.416,3.225 -1.25,4.63c-0.833,1.406 -1.94,2.512 -3.322,3.33l0,5.874l6.856,-0c0.622,-0 1.159,0.231 1.609,0.686c0.451,0.455 0.68,0.996 0.68,1.624l0,4.613c0,0.622 -0.229,1.164 -0.68,1.619c-0.45,0.455 -0.987,0.685 -1.609,0.685l-6.856,0l0,23.315c3.551,-0.478 6.782,-1.469 9.698,-2.972c2.917,-1.503 5.172,-3.347 6.77,-5.529l-3.573,-3.606c-0.36,-0.386 -0.44,-0.806 -0.251,-1.261c0.188,-0.478 0.548,-0.72 1.073,-0.72l12.569,0c0.337,0 0.611,0.109 0.822,0.323c0.217,0.218 0.32,0.495 0.32,0.829Z"/>
</svg>