<svg width="100%" height="100%" viewBox="0 0 64 64" version="1.1"
  xmlns="http://www.w3.org/2000/svg"
  xmlns:xlink="http://www.w3.org/1999/xlink" xml:space="preserve"
  xmlns:serif="http://www.serif.com/" style="fill-rule:evenodd;clip-rule:evenodd;stroke-linejoin:round;stroke-miterlimit:2;">
  <path d="M55.572,1.982c-4.758,-3.407 -11.381,-2.314 -14.791,2.447l-26.746,37.342c-2.435,3.398 -1.653,8.128 1.747,10.563c3.401,2.432 8.128,1.651 10.563,-1.75l18.885,-26.365l-2.462,-1.765l-18.882,26.367c-1.463,2.035 -4.3,2.508 -6.335,1.051c-2.038,-1.456 -2.505,-4.297 -1.045,-6.338l26.743,-37.339l0.003,-0.003l-0.006,-0.004c2.432,-3.388 7.174,-4.173 10.566,-1.744c3.392,2.432 4.176,7.174 1.747,10.566l0,-0.003l-29.314,40.931l0.003,0.003c-3.404,4.751 -10.042,5.848 -14.793,2.447c-4.752,-3.407 -5.845,-10.039 -2.444,-14.794l21.304,-29.744l-2.462,-1.762l-21.304,29.744c-4.382,6.117 -2.974,14.627 3.146,19.009c6.121,4.385 14.63,2.974 19.012,-3.141l29.315,-40.931c3.4,-4.757 2.31,-11.377 -2.45,-14.787Z"/>
</svg>