<svg width="100%" height="100%" viewBox="0 0 64 64" version="1.1"
  xmlns="http://www.w3.org/2000/svg"
  xmlns:xlink="http://www.w3.org/1999/xlink" xml:space="preserve"
  xmlns:serif="http://www.serif.com/" style="fill-rule:evenodd;clip-rule:evenodd;stroke-linejoin:round;stroke-miterlimit:2;">
  <path d="M12,47.733l5,-0l-0,-33.466l-5,-0l-0,-3.267l23.281,-0c4.792,-0 8.386,0.823 10.781,2.47c2.396,1.647 3.594,4.117 3.594,7.41c-0,2.391 -0.833,4.277 -2.5,5.658c-1.666,1.381 -4.114,2.257 -7.344,2.629c3.907,0.372 6.915,1.448 9.024,3.227c2.109,1.78 3.164,4.131 3.164,7.052c-0,3.931 -1.484,6.853 -4.453,8.765c-2.917,1.859 -7.5,2.789 -13.75,2.789l-21.797,-0l-0,-3.267Zm15.156,-0l3.75,-0c3.334,-0 5.808,-0.677 7.422,-2.032c1.615,-1.354 2.422,-3.439 2.422,-6.255c-0,-2.868 -0.82,-5.006 -2.461,-6.414c-1.641,-1.408 -4.102,-2.112 -7.383,-2.112l-3.75,-0l-0,16.813Zm-0,-20.08l3.438,-0c3.021,-0 5.26,-0.531 6.718,-1.593c1.459,-1.169 2.188,-2.895 2.188,-5.18c-0,-2.337 -0.729,-4.037 -2.188,-5.099c-1.406,-1.009 -3.645,-1.514 -6.718,-1.514l-3.438,-0l-0,13.386Z"/>
</svg>