<svg width="100%" height="100%" viewBox="0 0 64 64" version="1.1"
  xmlns="http://www.w3.org/2000/svg"
  xmlns:xlink="http://www.w3.org/1999/xlink" xml:space="preserve"
  xmlns:serif="http://www.serif.com/" style="fill-rule:evenodd;clip-rule:evenodd;stroke-linejoin:round;stroke-miterlimit:2;">
  <path d="M4.924,59.428l11.076,0l0,-10.285l-11.076,-0l-0,10.285Zm13.541,0l12.306,0l-0,-10.285l-12.306,-0l-0,10.285Zm-13.541,-12.574l11.076,0l0,-11.427l-11.076,0l-0,11.427Zm13.541,0l12.306,0l-0,-11.427l-12.306,0l-0,11.427Zm-13.541,-13.71l11.076,0l0,-10.285l-11.076,0l-0,10.285Zm28.305,26.284l12.312,0l0,-10.285l-12.312,-0l0,10.285Zm-14.764,-26.284l12.306,0l-0,-10.285l-12.306,0l-0,10.285Zm29.535,26.284l11.076,0l0,-10.285l-11.076,-0l-0,10.285Zm-14.771,-12.574l12.312,0l0,-11.427l-12.312,0l0,11.427Zm-13.535,-30.856l0,-10.285c0,-0.308 -0.123,-0.576 -0.369,-0.805c-0.239,-0.222 -0.528,-0.336 -0.86,-0.336l-2.465,-0c-0.332,-0 -0.621,0.114 -0.867,0.336c-0.239,0.229 -0.362,0.497 -0.362,0.805l-0,10.285c-0,0.309 0.123,0.577 0.362,0.805c0.246,0.229 0.535,0.343 0.867,0.343l2.465,-0c0.332,-0 0.621,-0.114 0.86,-0.343c0.246,-0.228 0.369,-0.496 0.369,-0.805Zm28.306,30.856l11.076,0l0,-11.427l-11.076,0l-0,11.427Zm-14.771,-13.71l12.312,0l0,-10.285l-12.312,0l0,10.285Zm14.771,0l11.076,0l0,-10.285l-11.076,0l-0,10.285Zm1.229,-17.146l0,-10.285c0,-0.308 -0.123,-0.576 -0.362,-0.805c-0.246,-0.222 -0.535,-0.336 -0.867,-0.336l-2.459,-0c-0.338,-0 -0.627,0.114 -0.866,0.336c-0.246,0.229 -0.369,0.497 -0.369,0.805l-0,10.285c-0,0.309 0.123,0.577 0.369,0.805c0.239,0.229 0.528,0.343 0.866,0.343l2.459,-0c0.332,-0 0.621,-0.114 0.867,-0.343c0.239,-0.228 0.362,-0.496 0.362,-0.805Zm14.771,-2.282l-0,45.712c-0,1.238 -0.486,2.306 -1.463,3.213c-0.971,0.902 -2.127,1.359 -3.461,1.359l-54.152,0c-1.334,0 -2.49,-0.457 -3.461,-1.359c-0.977,-0.907 -1.463,-1.975 -1.463,-3.213l0,-45.712c0,-1.239 0.486,-2.312 1.463,-3.214c0.971,-0.908 2.127,-1.358 3.461,-1.358l4.923,-0l0,-3.431c0,-1.569 0.602,-2.916 1.807,-4.035c1.205,-1.119 2.656,-1.678 4.346,-1.678l2.465,-0c1.69,-0 3.141,0.559 4.346,1.678c1.204,1.119 1.807,2.466 1.807,4.035l-0,3.431l14.764,-0l0,-3.431c0,-1.569 0.603,-2.916 1.807,-4.035c1.211,-1.119 2.656,-1.678 4.352,-1.678l2.459,-0c1.69,-0 3.141,0.559 4.346,1.678c1.205,1.119 1.807,2.466 1.807,4.035l-0,3.431l4.923,-0c1.334,-0 2.49,0.45 3.461,1.358c0.977,0.902 1.463,1.975 1.463,3.214Z"/>
</svg>