<svg width="100%" height="100%" viewBox="0 0 64 64" version="1.1"
  xmlns="http://www.w3.org/2000/svg"
  xmlns:xlink="http://www.w3.org/1999/xlink" xml:space="preserve"
  xmlns:serif="http://www.serif.com/" style="fill-rule:evenodd;clip-rule:evenodd;stroke-linejoin:round;stroke-miterlimit:2;">
  <path d="M22.4,-0l-5.856,7.603l-16.544,0l-0,56.397l64,0l-0,-56.397l-16.544,0l-5.856,-7.603l-19.2,-0Zm9.6,51.809c-8.832,0 -16,-7.395 -16,-16.507c-0,-9.113 7.168,-16.508 16,-16.508c8.832,-0 16,7.395 16,16.508c-0,9.112 -7.168,16.507 -16,16.507Zm-0,-7.666c5.049,-0 9.143,-4.094 9.143,-9.143c-0,-5.049 -4.094,-9.143 -9.143,-9.143c-5.049,0 -9.143,4.094 -9.143,9.143c0,5.049 4.094,9.143 9.143,9.143Z"/>
</svg>