<svg width="100%" height="100%" viewBox="0 0 64 64" version="1.1"
  xmlns="http://www.w3.org/2000/svg"
  xmlns:xlink="http://www.w3.org/1999/xlink" xml:space="preserve"
  xmlns:serif="http://www.serif.com/" style="fill-rule:evenodd;clip-rule:evenodd;stroke-linejoin:round;stroke-miterlimit:2;">
  <path d="M55.839,35.507l2.69,0.35c-0.294,1.854 -1.047,3.305 -2.257,4.354c-1.211,1.049 -2.698,1.573 -4.461,1.573c-2.209,0 -3.985,-0.722 -5.327,-2.166c-1.343,-1.444 -2.014,-3.513 -2.014,-6.208c0,-1.743 0.289,-3.268 0.866,-4.575c0.578,-1.307 1.457,-2.287 2.637,-2.941c1.181,-0.653 2.465,-0.98 3.853,-0.98c1.753,0 3.187,0.443 4.301,1.33c1.115,0.886 1.829,2.145 2.143,3.776l-2.659,0.411c-0.254,-1.084 -0.702,-1.9 -1.346,-2.447c-0.643,-0.547 -1.421,-0.821 -2.332,-0.821c-1.378,0 -2.498,0.494 -3.359,1.482c-0.862,0.988 -1.292,2.551 -1.292,4.689c0,2.168 0.415,3.743 1.246,4.726c0.831,0.983 1.915,1.475 3.253,1.475c1.074,0 1.97,-0.33 2.69,-0.988c0.719,-0.659 1.175,-1.672 1.368,-3.04Zm-25.321,5.912l-2.538,-0l0,-22.281l2.736,-0l0,7.949c1.155,-1.449 2.629,-2.173 4.422,-2.173c0.993,-0 1.933,0.2 2.82,0.6c0.886,0.4 1.616,0.963 2.188,1.687c0.573,0.725 1.021,1.598 1.345,2.622c0.325,1.023 0.487,2.117 0.487,3.283c0,2.766 -0.684,4.904 -2.052,6.413c-1.368,1.51 -3.009,2.265 -4.924,2.265c-1.905,-0 -3.4,-0.795 -4.484,-2.386l0,2.021Zm-25.381,-0l8.557,-22.281l3.176,-0l9.119,22.281l-3.359,-0l-2.599,-6.748l-9.316,-0l-2.447,6.748l-3.131,-0Zm25.351,-8.192c-0,1.936 0.263,3.334 0.79,4.195c0.861,1.408 2.027,2.113 3.496,2.113c1.195,-0 2.229,-0.52 3.1,-1.558c0.872,-1.039 1.307,-2.587 1.307,-4.643c-0,-2.108 -0.418,-3.663 -1.254,-4.666c-0.836,-1.003 -1.846,-1.505 -3.032,-1.505c-1.195,-0 -2.229,0.519 -3.1,1.558c-0.872,1.039 -1.307,2.541 -1.307,4.506Zm-18.922,-0.957l7.553,-0l-2.325,-6.171c-0.709,-1.874 -1.236,-3.414 -1.581,-4.62c-0.283,1.429 -0.683,2.847 -1.2,4.256l-2.447,6.535Z"/>
</svg>