<svg width="100%" height="100%" viewBox="0 0 64 64" version="1.1"
  xmlns="http://www.w3.org/2000/svg"
  xmlns:xlink="http://www.w3.org/1999/xlink" xml:space="preserve"
  xmlns:serif="http://www.serif.com/" style="fill-rule:evenodd;clip-rule:evenodd;stroke-linejoin:round;stroke-miterlimit:2;">
  <path d="M64,-0l0,64l-64,-0l-0,-64l64,-0Zm-2.085,2.012l-60,-0l-0,59.937l60,-0l-0,-59.937Zm-43.915,38.022l-0,16l-8,-0l-0,-16l8,-0Zm12,-20l-0,36l-8,-0l-0,-36l8,-0Zm12,12l-0,24l-8,-0l-0,-24l8,-0Zm12,-22l-0,46l-8,-0l-0,-46l8,-0Z"/>
</svg>