<svg width="100%" height="100%" viewBox="0 0 64 64" version="1.1"
  xmlns="http://www.w3.org/2000/svg"
  xmlns:xlink="http://www.w3.org/1999/xlink" xml:space="preserve"
  xmlns:serif="http://www.serif.com/" style="fill-rule:evenodd;clip-rule:evenodd;stroke-linejoin:round;stroke-miterlimit:2;">
  <path d="M32,0.02c4.155,-0 8.194,0.79 12.118,2.37c3.924,1.581 7.413,3.915 10.467,7.005c4.119,4.084 6.898,8.869 8.336,14.355c1.439,5.487 1.439,10.973 0,16.46c-1.438,5.486 -4.208,10.28 -8.309,14.382c-4.102,4.101 -8.896,6.871 -14.382,8.309c-5.487,1.439 -10.973,1.439 -16.46,0c-5.486,-1.438 -10.28,-4.208 -14.382,-8.309c-4.101,-4.102 -6.871,-8.896 -8.309,-14.382c-1.439,-5.487 -1.439,-10.973 -0,-16.46c1.438,-5.486 4.217,-10.271 8.336,-14.355c3.054,-3.09 6.543,-5.424 10.467,-7.005c3.924,-1.58 7.963,-2.37 12.118,-2.37Zm-0,8.363c-3.089,-0 -6.081,0.586 -8.975,1.758c-2.895,1.172 -5.46,2.894 -7.697,5.167c-3.054,3.018 -5.114,6.551 -6.179,10.6c-1.066,4.048 -1.066,8.096 -0,12.144c1.065,4.049 3.116,7.591 6.152,10.627c3.036,3.036 6.578,5.087 10.627,6.152c4.048,1.066 8.096,1.066 12.144,0c4.049,-1.065 7.582,-3.125 10.6,-6.178c1.847,-1.812 3.339,-3.845 4.475,-6.1c1.136,-2.254 1.873,-4.58 2.21,-6.977c0.338,-2.397 0.338,-4.794 0,-7.191c-0.337,-2.397 -1.074,-4.723 -2.21,-6.978c-1.136,-2.255 -2.628,-4.288 -4.475,-6.099c-1.491,-1.527 -3.16,-2.815 -5.007,-3.862c-1.846,-1.048 -3.746,-1.82 -5.699,-2.317c-1.953,-0.498 -3.942,-0.746 -5.966,-0.746Zm0.936,19.747c1.757,0.422 3.064,2.005 3.064,3.89c-0,2.208 -1.792,4 -4,4c-0.742,-0 -1.436,-0.202 -2.032,-0.555l-14.353,8.287l-2,-3.464l14.385,-8.305c0.017,-1.823 1.255,-3.356 2.936,-3.82l-0,-16.163l2,0l-0,16.13Z"/>
</svg>