<svg width="100%" height="100%" viewBox="0 0 64 64" version="1.1"
  xmlns="http://www.w3.org/2000/svg"
  xmlns:xlink="http://www.w3.org/1999/xlink" xml:space="preserve"
  xmlns:serif="http://www.serif.com/" style="fill-rule:evenodd;clip-rule:evenodd;stroke-linejoin:round;stroke-miterlimit:2;">
  <path d="M59.383,13.568c0.731,0.668 1.356,1.576 1.875,2.718c0.526,1.141 0.782,2.191 0.782,3.139l-0,41.15c-0,0.948 -0.363,1.758 -1.094,2.426c-0.732,0.668 -1.613,0.999 -2.657,0.999l-52.578,0c-1.038,0 -1.925,-0.331 -2.657,-0.999c-0.731,-0.668 -1.094,-1.478 -1.094,-2.426l0,-57.15c0,-0.948 0.363,-1.758 1.094,-2.426c0.732,-0.668 1.619,-0.999 2.657,-0.999l35.054,0c1.044,0 2.188,0.234 3.439,0.714c1.256,0.473 2.244,1.044 2.975,1.712l12.204,11.142Zm-17.368,-8.71l0,13.425l14.711,0c-0.263,-0.69 -0.55,-1.176 -0.863,-1.461l-12.247,-11.182c-0.313,-0.286 -0.844,-0.548 -1.601,-0.782Zm15.023,54.57l0,-36.572l-16.273,-0c-1.044,-0 -1.932,-0.332 -2.663,-0.999c-0.732,-0.668 -1.094,-1.479 -1.094,-2.432l-0,-14.853l-30.04,0l-0,54.856l50.07,-0Zm-40.061,-30.859c-0,-0.331 0.119,-0.605 0.356,-0.822c0.232,-0.211 0.532,-0.319 0.901,-0.319l27.539,-0c0.362,-0 0.662,0.108 0.894,0.319c0.237,0.217 0.356,0.491 0.356,0.822l0,2.289c0,0.331 -0.119,0.605 -0.356,0.822c-0.232,0.212 -0.532,0.32 -0.894,0.32l-27.539,0c-0.369,0 -0.669,-0.108 -0.901,-0.32c-0.237,-0.217 -0.356,-0.491 -0.356,-0.822l-0,-2.289Zm28.796,8.003c0.362,0 0.662,0.109 0.894,0.32c0.237,0.217 0.356,0.491 0.356,0.822l0,2.289c0,0.331 -0.119,0.605 -0.356,0.822c-0.232,0.211 -0.532,0.319 -0.894,0.319l-27.539,0c-0.369,0 -0.669,-0.108 -0.901,-0.319c-0.237,-0.217 -0.356,-0.491 -0.356,-0.822l-0,-2.289c-0,-0.331 0.119,-0.605 0.356,-0.822c0.232,-0.211 0.532,-0.32 0.901,-0.32l27.539,0Zm-0,9.145c0.362,-0 0.662,0.103 0.894,0.319c0.237,0.217 0.356,0.491 0.356,0.822l0,2.284c0,0.336 -0.119,0.61 -0.356,0.821c-0.232,0.217 -0.532,0.326 -0.894,0.326l-27.539,-0c-0.369,-0 -0.669,-0.109 -0.901,-0.326c-0.237,-0.211 -0.356,-0.485 -0.356,-0.821l-0,-2.284c-0,-0.331 0.119,-0.605 0.356,-0.822c0.232,-0.216 0.532,-0.319 0.901,-0.319l27.539,-0Z"/>
</svg>