<svg width="100%" height="100%" viewBox="0 0 64 64" version="1.1"
  xmlns="http://www.w3.org/2000/svg"
  xmlns:xlink="http://www.w3.org/1999/xlink" xml:space="preserve"
  xmlns:serif="http://www.serif.com/" style="fill-rule:evenodd;clip-rule:evenodd;stroke-linejoin:round;stroke-miterlimit:2;">
  <path d="M27.2,56.053c0,2.205 -0.773,4.08 -2.32,5.627c-1.547,1.547 -3.422,2.32 -5.627,2.32c-2.204,-0 -4.08,-0.773 -5.626,-2.32c-1.547,-1.547 -2.32,-3.422 -2.32,-5.627c-0,-1.422 0.355,-2.746 1.066,-3.973c0.711,-1.227 1.68,-2.196 2.907,-2.907c1.227,-0.711 2.551,-1.066 3.973,-1.066c2.205,-0 4.08,0.773 5.627,2.32c1.547,1.546 2.32,3.422 2.32,5.626Zm0,-24.053c0,1.067 -0.204,2.098 -0.613,3.093c-0.409,0.996 -0.969,1.84 -1.68,2.534c-0.711,0.693 -1.556,1.253 -2.534,1.68c-0.977,0.426 -2.017,0.64 -3.12,0.64c-2.204,-0 -4.08,-0.774 -5.626,-2.32c-1.547,-1.547 -2.32,-3.423 -2.32,-5.627c-0,-2.204 0.773,-4.08 2.32,-5.627c1.546,-1.546 3.422,-2.32 5.626,-2.32c1.458,0 2.791,0.356 4,1.067c1.209,0.711 2.169,1.68 2.88,2.907c0.711,1.226 1.067,2.551 1.067,3.973Zm0,-24.053c0,2.204 -0.773,4.08 -2.32,5.626c-1.547,1.547 -3.422,2.32 -5.627,2.32c-2.204,0 -4.08,-0.773 -5.626,-2.32c-1.547,-1.546 -2.32,-3.422 -2.32,-5.626c-0,-2.205 0.773,-4.08 2.32,-5.627c1.546,-1.547 3.422,-2.32 5.626,-2.32c2.205,-0 4.08,0.773 5.627,2.32c1.547,1.547 2.32,3.422 2.32,5.627Zm25.493,48.106c0,2.205 -0.773,4.08 -2.32,5.627c-1.546,1.547 -3.422,2.32 -5.626,2.32c-2.205,-0 -4.08,-0.773 -5.627,-2.32c-1.547,-1.547 -2.32,-3.422 -2.32,-5.627c0,-2.204 0.773,-4.08 2.32,-5.626c1.547,-1.547 3.422,-2.32 5.627,-2.32c2.204,-0 4.08,0.773 5.626,2.32c1.547,1.546 2.32,3.422 2.32,5.626Zm0,-24.053c0,2.204 -0.773,4.08 -2.32,5.627c-1.546,1.546 -3.422,2.32 -5.626,2.32c-2.205,-0 -4.08,-0.774 -5.627,-2.32c-1.547,-1.547 -2.32,-3.423 -2.32,-5.627c0,-2.204 0.773,-4.08 2.32,-5.627c1.547,-1.546 3.422,-2.32 5.627,-2.32c2.204,0 4.08,0.774 5.626,2.32c1.547,1.547 2.32,3.423 2.32,5.627Zm0,-24.053c0,2.204 -0.773,4.08 -2.32,5.626c-1.546,1.547 -3.422,2.32 -5.626,2.32c-2.205,0 -4.08,-0.773 -5.627,-2.32c-1.547,-1.546 -2.32,-3.422 -2.32,-5.626c0,-2.205 0.773,-4.08 2.32,-5.627c1.547,-1.547 3.422,-2.32 5.627,-2.32c1.422,-0 2.746,0.356 3.973,1.067c1.227,0.711 2.196,1.68 2.907,2.906c0.711,1.227 1.066,2.551 1.066,3.974Z"/>
</svg>