<svg width="100%" height="100%" viewBox="0 0 64 64" version="1.1"
  xmlns="http://www.w3.org/2000/svg"
  xmlns:xlink="http://www.w3.org/1999/xlink" xml:space="preserve"
  xmlns:serif="http://www.serif.com/" style="fill-rule:evenodd;clip-rule:evenodd;stroke-linejoin:round;stroke-miterlimit:2;">
  <path d="M36,53.998l0,8c0,0.592 -0.264,1.16 -0.724,1.54c-0.36,0.3 -0.816,0.46 -1.276,0.46c-0.12,-0 -0.248,-0.012 -0.368,-0.036l-32,-8c-0.948,-0.176 -1.632,-1.173 -1.632,-2.133l0,-43.518c-0.013,-1.558 0.346,-1.918 1.632,-2.277l32,-8c0.584,-0.108 1.188,0.048 1.644,0.424c0.46,0.38 0.724,0.944 0.724,1.54l0,8l26,-0c1.104,-0 2,0.896 2,2l0,40c0,1.104 -0.896,2 -2,2l-26,-0Zm-4,5.588l0,-55.176l-28,7.248l0,40.68l28,7.248Zm4,-9.588l24,-0l0,-36l-24,-0l0,4l6,-0c1.104,-0 2,0.896 2,2c0,1.104 -0.896,2 -2,2l-6,-0l0,4l6,-0c1.104,-0 2,0.896 2,2c0,1.104 -0.896,2 -2,2l-6,-0l0,4l6,-0c1.104,-0 2,0.896 2,2c0,1.104 -0.896,2 -2,2l-6,-0l0,4l6,-0c1.104,-0 2,0.896 2,2c0,1.104 -0.896,2 -2,2l-6,-0l0,4Zm18,-8c1.104,-0 2,0.896 2,2c0,1.104 -0.896,2 -2,2l-4,-0c-1.104,-0 -2,-0.896 -2,-2c0,-1.104 0.896,-2 2,-2l4,-0Zm0,-24c1.104,-0 2,0.896 2,2c0,1.104 -0.896,2 -2,2l-4,-0c-1.104,-0 -2,-0.896 -2,-2c0,-1.104 0.896,-2 2,-2l4,-0Zm0,8c1.104,-0 2,0.896 2,2c0,1.104 -0.896,2 -2,2l-4,-0c-1.104,-0 -2,-0.896 -2,-2c0,-1.104 0.896,-2 2,-2l4,-0Zm0,8c1.104,-0 2,0.896 2,2c0,1.104 -0.896,2 -2,2l-4,-0c-1.104,-0 -2,-0.896 -2,-2c0,-1.104 0.896,-2 2,-2l4,-0Zm-35.32,0.669l-5.104,6.563c-0.392,0.504 -0.984,0.768 -1.576,0.768c-0.428,-0 -0.86,-0.136 -1.228,-0.42c-0.872,-0.676 -1.028,-1.936 -0.352,-2.808l5.576,-7.17l-5.5,-6.286c-0.728,-0.828 -0.644,-2.092 0.188,-2.82c0.828,-0.728 2.088,-0.648 2.824,0.188l4.99,5.702l5.922,-7.614c0.68,-0.868 1.936,-1.032 2.808,-0.348c0.872,0.676 1.028,1.932 0.348,2.808l-6.395,8.221l6.327,7.231c0.728,0.832 0.644,2.092 -0.188,2.82c-0.384,0.332 -0.852,0.496 -1.32,0.496c-0.556,-0 -1.108,-0.232 -1.504,-0.684l-5.816,-6.647Z"/>
</svg>