<svg width="100%" height="100%" viewBox="0 0 64 64" version="1.1"
  xmlns="http://www.w3.org/2000/svg"
  xmlns:xlink="http://www.w3.org/1999/xlink" xml:space="preserve"
  xmlns:serif="http://www.serif.com/" style="fill-rule:evenodd;clip-rule:evenodd;stroke-linejoin:round;stroke-miterlimit:2;">
  <path d="M24.51,13.385c1.692,-1.494 4.105,-2.58 7.547,-2.608c6.571,0.055 9.675,3.922 11.121,7.135c0.806,1.794 1.152,3.748 1.281,5.71c0.468,7.07 4.068,13.536 5.745,16.299c0.569,0.937 0.294,2.185 -0.647,2.748c-1.537,0.92 -3.419,0.594 -3.431,0.591l-7.223,0c-0.706,0.001 -1.017,0.987 -0.463,1.424c0.452,0.356 0.883,0.678 1.116,0.805l8.437,5.106c0.046,0.025 0.091,0.05 0.135,0.076c5.396,2.138 13.889,5.568 14.794,6.471c1.213,1.213 1.073,6.858 1.073,6.858l-63.99,0c-0,0 -0.138,-5.645 1.075,-6.858c0.875,-0.873 8.869,-4.118 14.273,-6.265c0.134,-0.079 0.271,-0.154 0.412,-0.224l10.144,-4.35c0.55,-0.275 0.998,-1.164 1.313,-1.797c0.284,-0.572 -0.141,-1.246 -0.78,-1.246l-7.174,0c0,0 -2.594,-0.253 -4.594,-1.113c-1.172,-0.503 -1.575,-1.167 -0.843,-2.21c2.143,-3.051 6.573,-10.233 6.716,-17.65c0,0 0.112,-5.206 3.653,-8.615c0.017,-0.162 0.124,-0.25 0.31,-0.287Z"/>
</svg>