<svg width="100%" height="100%" viewBox="0 0 64 64" version="1.1"
  xmlns="http://www.w3.org/2000/svg"
  xmlns:xlink="http://www.w3.org/1999/xlink" xml:space="preserve"
  xmlns:serif="http://www.serif.com/" style="fill-rule:evenodd;clip-rule:evenodd;stroke-linejoin:round;stroke-miterlimit:2;">
  <path d="M64,27.458l-0,9.25c-0,0.333 -0.107,0.653 -0.333,0.959c-0.22,0.307 -0.499,0.487 -0.832,0.54l-7.706,1.165c-0.533,1.505 -1.072,2.771 -1.625,3.796c0.973,1.386 2.458,3.304 4.456,5.748c0.279,0.333 0.419,0.679 0.419,1.045c0,0.36 -0.126,0.68 -0.379,0.959c-0.746,1.026 -2.125,2.524 -4.123,4.496c-1.998,1.978 -3.303,2.963 -3.916,2.963c-0.333,0 -0.692,-0.126 -1.085,-0.379l-5.748,-4.496c-1.225,0.64 -2.49,1.166 -3.796,1.579c-0.439,3.782 -0.845,6.366 -1.205,7.752c-0.193,0.779 -0.693,1.165 -1.498,1.165l-9.251,-0c-0.393,-0 -0.732,-0.113 -1.025,-0.353c-0.293,-0.233 -0.453,-0.533 -0.48,-0.892l-1.165,-7.672c-1.359,-0.44 -2.611,-0.959 -3.75,-1.539l-5.874,4.456c-0.279,0.253 -0.626,0.379 -1.045,0.379c-0.387,0 -0.733,-0.153 -1.039,-0.459c-3.503,-3.17 -5.794,-5.501 -6.88,-7c-0.193,-0.279 -0.286,-0.599 -0.286,-0.959c-0,-0.333 0.106,-0.652 0.333,-0.959c0.413,-0.586 1.125,-1.505 2.124,-2.77c0.999,-1.266 1.752,-2.244 2.251,-2.937c-0.752,-1.392 -1.318,-2.764 -1.711,-4.129l-7.626,-1.126c-0.359,-0.053 -0.652,-0.226 -0.872,-0.519c-0.226,-0.293 -0.333,-0.619 -0.333,-0.979l-0,-9.25c-0,-0.333 0.107,-0.653 0.333,-0.959c0.22,-0.307 0.486,-0.487 0.793,-0.54l7.745,-1.172c0.393,-1.272 0.932,-2.551 1.625,-3.829c-1.106,-1.585 -2.598,-3.503 -4.456,-5.754c-0.279,-0.333 -0.419,-0.666 -0.419,-0.999c-0,-0.273 0.126,-0.593 0.379,-0.959c0.72,-0.999 2.092,-2.491 4.103,-4.476c2.011,-1.991 3.33,-2.983 3.936,-2.983c0.366,-0 0.726,0.14 1.085,0.419l5.748,4.456c1.225,-0.64 2.49,-1.166 3.796,-1.579c0.446,-3.782 0.845,-6.366 1.205,-7.752c0.2,-0.779 0.699,-1.165 1.505,-1.165l9.251,-0c0.386,-0 0.725,0.113 1.018,0.353c0.293,0.233 0.453,0.533 0.48,0.892l1.165,7.672c1.366,0.44 2.611,0.959 3.75,1.539l5.92,-4.456c0.247,-0.253 0.58,-0.379 0.999,-0.379c0.36,-0 0.706,0.14 1.039,0.419c3.583,3.304 5.874,5.668 6.88,7.086c0.193,0.22 0.286,0.526 0.286,0.913c0,0.333 -0.106,0.652 -0.333,0.959c-0.413,0.586 -1.119,1.505 -2.124,2.77c-0.999,1.266 -1.752,2.245 -2.251,2.937c0.726,1.392 1.292,2.751 1.711,4.083l7.626,1.172c0.359,0.053 0.652,0.226 0.872,0.519c0.226,0.293 0.333,0.619 0.333,0.979Zm-32,-12.742c-9.54,-0 -17.284,7.744 -17.284,17.284c-0,9.54 7.744,17.284 17.284,17.284c9.54,0 17.284,-7.744 17.284,-17.284c0,-9.54 -7.744,-17.284 -17.284,-17.284Z"/>
</svg>