<svg width="100%" height="100%" viewBox="0 0 64 64" version="1.1"
  xmlns="http://www.w3.org/2000/svg"
  xmlns:xlink="http://www.w3.org/1999/xlink" xml:space="preserve"
  xmlns:serif="http://www.serif.com/" style="fill-rule:evenodd;clip-rule:evenodd;stroke-linejoin:round;stroke-miterlimit:2;">
  <path d="M12,40l-12,-0l0,-40l40,-0l-0,12l12,0l-0,12l12,0l-0,40l-40,0l0,-12l-12,0l-0,-12Zm35.625,-23.625l-31.25,0l-0,31.25l7.625,0l0,-23.625l23.625,0l-0,-7.625Zm-19.25,12l0,31.25l31.25,0l-0,-31.25l-31.25,0Zm-16.375,-16.375l23.625,0l-0,-7.625l-31.25,-0l-0,31.25l7.625,-0l-0,-23.625Z"/>
</svg>