<svg width="100%" height="100%" viewBox="0 0 64 64" version="1.1"
  xmlns="http://www.w3.org/2000/svg"
  xmlns:xlink="http://www.w3.org/1999/xlink" xml:space="preserve"
  xmlns:serif="http://www.serif.com/" style="fill-rule:evenodd;clip-rule:evenodd;stroke-linejoin:round;stroke-miterlimit:2;">
  <path d="M0,5.28l64,0l0,53.44l-64,0l0,-53.44Zm4.907,5.013l0,43.414l54.186,0l0,-43.414l-54.186,0Zm11.146,6.24c1.458,0 2.711,0.525 3.76,1.574c1.049,1.049 1.574,2.337 1.574,3.866c-0,1.458 -0.525,2.711 -1.574,3.76c-1.049,1.049 -2.302,1.574 -3.76,1.574c-1.529,0 -2.809,-0.525 -3.84,-1.574c-1.031,-1.049 -1.546,-2.302 -1.546,-3.76c0,-1.529 0.515,-2.817 1.546,-3.866c1.031,-1.049 2.311,-1.574 3.84,-1.574Zm23.04,2.667l14.24,14.72l0,14.667l-42.666,0l0,-3.68l9.6,-12.48l6.56,5.44l12.266,-18.667Z"/>
</svg>