<svg width="100%" height="100%" viewBox="0 0 64 64" version="1.1"
  xmlns="http://www.w3.org/2000/svg"
  xmlns:xlink="http://www.w3.org/1999/xlink" xml:space="preserve"
  xmlns:serif="http://www.serif.com/" style="fill-rule:evenodd;clip-rule:evenodd;stroke-linejoin:round;stroke-miterlimit:2;">
  <path d="M64,51l-64,0l0,5l64,0l0,-5Zm0,-10.75l-40,0l0,5l40,0l0,-5Zm-44,-8.25l-20,13.25l0,-26.5l20,13.25Zm44,-2.5l-40,0l0,5l40,0l0,-5Zm0,-10.75l-40,0l0,5l40,0l0,-5Zm0,-10.75l-64,0l0,5l64,0l0,-5Z"/>
</svg>