<svg width="100%" height="100%" viewBox="0 0 64 64" version="1.1"
  xmlns="http://www.w3.org/2000/svg"
  xmlns:xlink="http://www.w3.org/1999/xlink" xml:space="preserve"
  xmlns:serif="http://www.serif.com/" style="fill-rule:evenodd;clip-rule:evenodd;stroke-linejoin:round;stroke-miterlimit:2;">
  <path d="M32,-0c5.796,-0 11.147,1.431 16.053,4.293c4.907,2.863 8.791,6.747 11.654,11.654c2.862,4.906 4.293,10.257 4.293,16.053c0,5.796 -1.431,11.147 -4.293,16.053c-2.863,4.907 -6.747,8.791 -11.654,11.654c-4.906,2.862 -10.257,4.293 -16.053,4.293c-5.796,0 -11.147,-1.431 -16.053,-4.293c-4.907,-2.863 -8.791,-6.747 -11.654,-11.654c-2.862,-4.906 -4.293,-10.257 -4.293,-16.053c0,-5.796 1.431,-11.147 4.293,-16.053c2.863,-4.907 6.747,-8.791 11.654,-11.654c4.906,-2.862 10.257,-4.293 16.053,-4.293Zm-1.013,10.987c-1.458,-0 -2.649,0.391 -3.574,1.173c-0.889,0.818 -1.333,1.876 -1.333,3.173c-0,1.298 0.444,2.338 1.333,3.12c0.925,0.783 2.116,1.174 3.574,1.174c1.457,-0 2.649,-0.391 3.573,-1.174c0.924,-0.782 1.387,-1.822 1.387,-3.12c-0,-1.297 -0.463,-2.346 -1.387,-3.146c-0.924,-0.8 -2.116,-1.2 -3.573,-1.2Zm4.586,14.026c-1.351,0 -3.253,0.294 -5.706,0.88c-2.454,0.587 -4.445,1.183 -5.974,1.787l0.48,2.507l2.24,-0.427c1.103,-0 1.654,0.729 1.654,2.187l-0,15.733c-0,0.853 -0.303,1.458 -0.907,1.813c-0.711,0.498 -1.831,0.925 -3.36,1.28l0.533,2.24c3.52,-0.355 6.027,-0.533 7.52,-0.533c1.494,0 4.036,0.178 7.627,0.533l0.427,-2.24c-1.458,-0.426 -2.56,-0.871 -3.307,-1.333c-0.427,-0.213 -0.711,-0.427 -0.853,-0.64c-0.071,-0.213 -0.107,-0.587 -0.107,-1.12l0,-15.413c0,-2.134 0.338,-4.071 1.013,-5.814l-1.28,-1.44Z"/>
</svg>