<svg width="100%" height="100%" viewBox="0 0 64 64" version="1.1"
  xmlns="http://www.w3.org/2000/svg"
  xmlns:xlink="http://www.w3.org/1999/xlink" xml:space="preserve"
  xmlns:serif="http://www.serif.com/" style="fill-rule:evenodd;clip-rule:evenodd;stroke-linejoin:round;stroke-miterlimit:2;">
  <path d="M36.118,49.909l-0.324,1.091l-16.461,0l0.413,-1.091c1.652,-0.04 2.744,-0.177 3.275,-0.413c0.865,-0.335 1.504,-0.797 1.917,-1.387c0.649,-0.924 1.318,-2.576 2.006,-4.956l6.962,-24.129c0.59,-2.006 0.885,-3.521 0.885,-4.543c0,-0.511 -0.128,-0.944 -0.384,-1.298c-0.256,-0.354 -0.644,-0.624 -1.165,-0.811c-0.521,-0.187 -1.539,-0.281 -3.053,-0.281l0.354,-1.091l15.457,0l-0.324,1.091c-1.259,-0.019 -2.193,0.118 -2.803,0.413c-0.885,0.394 -1.558,0.954 -2.02,1.682c-0.463,0.727 -1.058,2.34 -1.785,4.838l-6.932,24.129c-0.63,2.223 -0.944,3.639 -0.944,4.248c0,0.492 0.123,0.91 0.368,1.254c0.246,0.344 0.64,0.61 1.18,0.796c0.541,0.187 1.667,0.34 3.378,0.458Z"/>
</svg>