<svg width="100%" height="100%" viewBox="0 0 64 64" version="1.1"
  xmlns="http://www.w3.org/2000/svg"
  xmlns:xlink="http://www.w3.org/1999/xlink" xml:space="preserve"
  xmlns:serif="http://www.serif.com/" style="fill-rule:evenodd;clip-rule:evenodd;stroke-linejoin:round;stroke-miterlimit:2;">
  <path d="M33.564,38.893l-6.587,6.589c0.144,2.728 -0.792,5.499 -2.875,7.589c-3.906,3.891 -10.232,3.891 -14.139,-0.005c-3.896,-3.907 -3.893,-10.229 -0.002,-14.136c2.088,-2.083 4.864,-3.016 7.592,-2.875l6.584,-6.584c-6.568,-2.819 -14.467,-1.563 -19.835,3.803c-7.024,7.032 -7.029,18.419 0,25.453c7.035,7.033 18.424,7.027 25.454,0l0.002,0.006c5.36,-5.371 6.622,-13.272 3.806,-19.84Zm-5.062,-13.787l6.579,-6.584c-0.141,-2.728 0.792,-5.499 2.875,-7.595c3.912,-3.891 10.232,-3.896 14.141,0.005c3.899,3.907 3.899,10.232 0,14.136c-2.088,2.088 -4.858,3.019 -7.589,2.878l-6.584,6.581c6.568,2.819 14.464,1.557 19.835,-3.797c7.024,-7.038 7.021,-18.427 0,-25.457c-7.038,-7.029 -18.427,-7.032 -25.454,-0.002c-5.363,5.365 -6.621,13.264 -3.803,19.835Zm9.6,-5.835l-19.797,19.803c-1.56,1.557 -1.565,4.093 0,5.656c1.56,1.557 4.096,1.557 5.656,-0.005l19.8,-19.798c1.558,-1.563 1.558,-4.093 0,-5.656c-1.565,-1.563 -4.101,-1.56 -5.659,0Z"/>
</svg>