<svg width="100%" height="100%" viewBox="0 0 64 64" version="1.1"
  xmlns="http://www.w3.org/2000/svg"
  xmlns:xlink="http://www.w3.org/1999/xlink" xml:space="preserve"
  xmlns:serif="http://www.serif.com/" style="fill-rule:evenodd;clip-rule:evenodd;stroke-linejoin:round;stroke-miterlimit:2;">
  <path d="M51.699,32l-0,-12.301c-0,-10.863 -8.836,-19.699 -19.699,-19.699c-10.863,-0 -19.699,8.836 -19.699,19.699l0,12.301l-4.301,-0l0,32l48,-0l0,-32l-4.301,-0Zm-31.629,-12.301c-0,-6.579 5.351,-11.93 11.93,-11.93c6.579,-0 11.93,5.351 11.93,11.93l0,12.301l-23.86,-0l-0,-12.301Zm16.973,36.301l-10.088,0l2.712,-7.821c-1.736,-0.864 -2.939,-2.637 -2.939,-4.704c0,-2.912 2.36,-5.271 5.272,-5.271c2.912,-0 5.272,2.357 5.272,5.271c-0,2.069 -1.203,3.84 -2.939,4.704l2.71,7.821Z"/>
</svg>