<svg width="100%" height="100%" viewBox="0 0 64 64" version="1.1"
  xmlns="http://www.w3.org/2000/svg"
  xmlns:xlink="http://www.w3.org/1999/xlink" xml:space="preserve"
  xmlns:serif="http://www.serif.com/" style="fill-rule:evenodd;clip-rule:evenodd;stroke-linejoin:round;stroke-miterlimit:2;">
  <path d="M54.114,35.522l2.69,0.35c-0.294,1.854 -1.047,3.305 -2.257,4.354c-1.211,1.049 -2.698,1.573 -4.461,1.573c-2.209,0 -3.985,-0.722 -5.327,-2.166c-1.343,-1.443 -2.014,-3.513 -2.014,-6.208c-0,-1.743 0.289,-3.268 0.866,-4.575c0.578,-1.307 1.457,-2.287 2.637,-2.941c1.181,-0.653 2.465,-0.98 3.853,-0.98c1.753,0 3.187,0.443 4.301,1.33c1.115,0.886 1.829,2.145 2.143,3.777l-2.659,0.41c-0.254,-1.084 -0.702,-1.9 -1.346,-2.447c-0.643,-0.547 -1.421,-0.821 -2.332,-0.821c-1.378,0 -2.498,0.494 -3.359,1.482c-0.862,0.988 -1.292,2.551 -1.292,4.689c0,2.168 0.415,3.744 1.246,4.727c0.831,0.982 1.915,1.474 3.253,1.474c1.074,0 1.97,-0.33 2.69,-0.988c0.719,-0.659 1.175,-1.672 1.368,-3.04Zm-25.321,5.912l-2.538,-0l-0,-22.28l2.736,-0l-0,7.948c1.155,-1.449 2.629,-2.173 4.422,-2.173c0.993,-0 1.933,0.2 2.82,0.6c0.886,0.401 1.616,0.963 2.188,1.687c0.573,0.725 1.021,1.599 1.345,2.622c0.325,1.023 0.487,2.118 0.487,3.283c-0,2.766 -0.684,4.904 -2.052,6.414c-1.368,1.509 -3.009,2.264 -4.924,2.264c-1.905,-0 -3.4,-0.795 -4.484,-2.386l-0,2.021Zm-9.301,-1.991c-1.013,0.862 -1.989,1.47 -2.926,1.824c-0.937,0.355 -1.943,0.532 -3.017,0.532c-1.773,-0 -3.136,-0.433 -4.088,-1.299c-0.952,-0.867 -1.429,-1.974 -1.429,-3.321c-0,-0.79 0.18,-1.512 0.54,-2.166c0.36,-0.653 0.831,-1.178 1.413,-1.573c0.583,-0.395 1.239,-0.694 1.968,-0.897c0.537,-0.142 1.348,-0.278 2.432,-0.41c2.209,-0.263 3.835,-0.578 4.879,-0.942c0.01,-0.375 0.015,-0.613 0.015,-0.715c-0,-1.114 -0.258,-1.899 -0.775,-2.355c-0.699,-0.618 -1.738,-0.927 -3.116,-0.927c-1.287,-0 -2.236,0.225 -2.849,0.676c-0.613,0.451 -1.067,1.249 -1.361,2.394l-2.675,-0.365c0.244,-1.145 0.644,-2.07 1.201,-2.774c0.557,-0.704 1.363,-1.246 2.417,-1.626c1.053,-0.38 2.274,-0.57 3.662,-0.57c1.378,-0 2.498,0.162 3.359,0.486c0.861,0.325 1.495,0.732 1.9,1.224c0.405,0.491 0.689,1.112 0.851,1.862c0.091,0.466 0.137,1.307 0.137,2.523l-0,3.647c-0,2.543 0.058,4.152 0.175,4.826c0.116,0.673 0.347,1.319 0.691,1.937l-2.857,-0c-0.284,-0.567 -0.466,-1.231 -0.547,-1.991Zm-0.228,-6.109c-0.993,0.405 -2.483,0.749 -4.468,1.033c-1.125,0.162 -1.921,0.345 -2.387,0.547c-0.466,0.203 -0.825,0.499 -1.079,0.889c-0.253,0.39 -0.38,0.824 -0.38,1.3c-0,0.729 0.276,1.337 0.829,1.824c0.552,0.486 1.36,0.729 2.424,0.729c1.054,-0 1.991,-0.23 2.811,-0.691c0.821,-0.461 1.424,-1.092 1.809,-1.893c0.294,-0.618 0.441,-1.53 0.441,-2.735l0,-1.003Zm9.499,-0.092c0,1.936 0.263,3.334 0.79,4.195c0.861,1.409 2.027,2.113 3.496,2.113c1.195,-0 2.229,-0.52 3.1,-1.558c0.872,-1.039 1.307,-2.586 1.307,-4.643c0,-2.108 -0.418,-3.663 -1.254,-4.666c-0.836,-1.003 -1.846,-1.505 -3.032,-1.505c-1.195,-0 -2.229,0.52 -3.1,1.558c-0.872,1.039 -1.307,2.541 -1.307,4.506Z"/>
</svg>