<svg width="100%" height="100%" viewBox="0 0 64 64" version="1.1"
  xmlns="http://www.w3.org/2000/svg"
  xmlns:xlink="http://www.w3.org/1999/xlink" xml:space="preserve"
  xmlns:serif="http://www.serif.com/" style="fill-rule:evenodd;clip-rule:evenodd;stroke-linejoin:round;stroke-miterlimit:2;">
  <path d="M43.426,29.045c-0,-0 2.016,-8.335 -0,-11.159c-2.019,-2.823 -2.824,-4.704 -7.262,-6.05c-4.438,-1.347 -2.821,-1.079 -6.048,-0.941c-3.228,0.136 -5.918,1.881 -5.918,2.821c-0,0 -2.016,0.136 -2.821,0.943c-0.808,0.807 -2.152,4.569 -2.152,5.512c0,0.942 0.672,7.261 1.344,8.605l-0.8,0.269c-0.672,7.796 2.688,8.739 2.688,8.739c1.209,7.261 2.42,4.17 2.42,6.05c0,1.881 -1.211,1.211 -1.211,1.211c-0,0 -1.073,2.957 -3.762,4.033c-2.688,1.073 -17.61,6.853 -18.824,8.064c-1.213,1.213 -1.075,6.858 -1.075,6.858l63.99,-0c0,-0 0.14,-5.645 -1.073,-6.858c-1.216,-1.214 -16.139,-6.991 -18.827,-8.064c-2.688,-1.076 -3.761,-4.033 -3.761,-4.033c-0,0 -1.211,0.67 -1.211,-1.211c-0,-1.88 1.211,1.211 2.422,-6.05c-0,-0 3.358,-0.943 2.688,-8.739l-0.807,-0Z"/>
</svg>