<svg width="100%" height="100%" viewBox="0 0 64 64" version="1.1"
  xmlns="http://www.w3.org/2000/svg"
  xmlns:xlink="http://www.w3.org/1999/xlink" xml:space="preserve"
  xmlns:serif="http://www.serif.com/" style="fill-rule:evenodd;clip-rule:evenodd;stroke-linejoin:round;stroke-miterlimit:2;">
  <path d="M0.254,58.576l2.656,-0.322c0.085,0.677 0.313,1.195 0.684,1.553c0.371,0.358 0.82,0.537 1.347,0.537c0.567,0 1.044,-0.215 1.431,-0.645c0.387,-0.429 0.581,-1.009 0.581,-1.738c0,-0.69 -0.185,-1.237 -0.557,-1.641c-0.371,-0.403 -0.823,-0.605 -1.357,-0.605c-0.352,0 -0.771,0.068 -1.26,0.205l0.303,-2.236c0.742,0.019 1.309,-0.142 1.699,-0.484c0.391,-0.342 0.586,-0.796 0.586,-1.362c0,-0.482 -0.143,-0.866 -0.43,-1.152c-0.286,-0.287 -0.667,-0.43 -1.142,-0.43c-0.469,0 -0.869,0.163 -1.201,0.488c-0.332,0.326 -0.534,0.801 -0.606,1.426l-2.529,-0.43c0.176,-0.866 0.441,-1.557 0.796,-2.075c0.355,-0.518 0.849,-0.924 1.484,-1.221c0.635,-0.296 1.346,-0.444 2.134,-0.444c1.348,0 2.428,0.43 3.242,1.289c0.671,0.703 1.006,1.497 1.006,2.383c0,1.256 -0.687,2.259 -2.06,3.008c0.82,0.175 1.476,0.569 1.967,1.181c0.492,0.612 0.738,1.351 0.738,2.217c0,1.257 -0.459,2.328 -1.377,3.213c-0.918,0.885 -2.061,1.328 -3.428,1.328c-1.296,0 -2.37,-0.373 -3.223,-1.118c-0.853,-0.745 -1.347,-1.72 -1.484,-2.925Zm63.746,-4.515l-48.101,0l0,5l48.101,0l0,-5Zm-54.381,-14.235l0,2.549l-9.619,0c0.104,-0.964 0.417,-1.877 0.937,-2.739c0.521,-0.863 1.55,-2.007 3.086,-3.433c1.237,-1.152 1.996,-1.933 2.276,-2.344c0.377,-0.566 0.566,-1.126 0.566,-1.679c0,-0.612 -0.164,-1.083 -0.493,-1.411c-0.329,-0.329 -0.783,-0.494 -1.362,-0.494c-0.573,0 -1.029,0.173 -1.367,0.518c-0.339,0.345 -0.534,0.918 -0.586,1.719l-2.735,-0.274c0.163,-1.51 0.674,-2.594 1.533,-3.252c0.86,-0.657 1.934,-0.986 3.223,-0.986c1.413,0 2.523,0.381 3.33,1.143c0.807,0.761 1.211,1.709 1.211,2.841c0,0.645 -0.115,1.259 -0.347,1.841c-0.231,0.583 -0.597,1.193 -1.098,1.831c-0.332,0.423 -0.931,1.032 -1.797,1.826c-0.866,0.795 -1.414,1.322 -1.646,1.582c-0.231,0.261 -0.418,0.515 -0.561,0.762l5.449,0Zm54.381,-7.074l-48.101,0l0,5l48.101,0l0,-5Zm-56.627,-10.377l-2.744,0l0,-10.342c-1.003,0.938 -2.184,1.631 -3.545,2.08l0,-2.49c0.716,-0.234 1.494,-0.679 2.334,-1.333c0.84,-0.654 1.416,-1.418 1.728,-2.29l2.227,0l0,14.375Zm56.627,-10.931l-48.101,0l0,5l48.101,0l0,-5Z"/>
</svg>