<svg width="100%" height="100%" viewBox="0 0 64 64" version="1.1"
  xmlns="http://www.w3.org/2000/svg"
  xmlns:xlink="http://www.w3.org/1999/xlink" xml:space="preserve"
  xmlns:serif="http://www.serif.com/" style="fill-rule:evenodd;clip-rule:evenodd;stroke-linejoin:round;stroke-miterlimit:2;">
  <path d="M58.182,5.818l-17.978,0c-1.222,-3.374 -4.422,-5.818 -8.204,-5.818c-3.782,0 -6.982,2.444 -8.204,5.818l-17.978,0c-3.2,0 -5.818,2.618 -5.818,5.818l-0,46.546c-0,3.2 2.618,5.818 5.818,5.818l52.364,0c3.2,0 5.818,-2.618 5.818,-5.818l-0,-46.546c-0,-3.2 -2.618,-5.818 -5.818,-5.818Zm-26.182,0c1.6,0 2.909,1.309 2.909,2.909c0,1.6 -1.309,2.909 -2.909,2.909c-1.6,0 -2.909,-1.309 -2.909,-2.909c-0,-1.6 1.309,-2.909 2.909,-2.909Zm26.182,52.364l-52.364,-0l0,-46.546l9.818,0l0,8.728l32.909,-0l0,-8.728l9.637,0l-0,46.546Z"/>
</svg>