<svg width="100%" height="100%" viewBox="0 0 64 64" version="1.1"
  xmlns="http://www.w3.org/2000/svg"
  xmlns:xlink="http://www.w3.org/1999/xlink" xml:space="preserve"
  xmlns:serif="http://www.serif.com/" style="fill-rule:evenodd;clip-rule:evenodd;stroke-linejoin:round;stroke-miterlimit:2;">
  <path d="M39.862,34.886c1.367,1.071 3.115,2.211 5.241,3.451c2.456,-0.296 4.89,-0.434 7.307,-0.434c6.119,0 9.813,1.004 11.06,3.009c0.659,0.904 0.709,1.976 0.12,3.204c-0,0.039 -0.021,0.079 -0.06,0.119c-0.04,0.039 -0.079,0.087 -0.131,0.127l0,0.059c-0.248,1.564 -1.726,2.34 -4.431,2.34c-1.996,0 -4.392,-0.413 -7.178,-1.228c-2.794,-0.826 -5.5,-1.908 -8.125,-3.265c-9.204,0.983 -17.359,2.685 -24.486,5.103c-6.369,10.744 -11.41,16.121 -15.114,16.121c-0.618,0 -1.207,-0.146 -1.747,-0.432l-1.497,-0.737c-0.039,-0.04 -0.17,-0.147 -0.379,-0.305c-0.409,-0.412 -0.539,-1.149 -0.37,-2.222c0.37,-1.641 1.539,-3.508 3.495,-5.623c1.956,-2.112 4.711,-4.089 8.245,-5.937c0.589,-0.374 1.058,-0.245 1.437,0.363c0.08,0.09 0.13,0.167 0.13,0.257c2.157,-3.492 4.392,-7.532 6.678,-12.122c2.835,-5.574 5.002,-10.951 6.499,-16.113c-0.999,-3.362 -1.638,-6.636 -1.907,-9.81c-0.269,-3.185 -0.14,-5.801 0.41,-7.845c0.448,-1.642 1.327,-2.458 2.615,-2.458l1.378,-0c0.957,-0 1.687,0.305 2.185,0.914c0.749,0.867 0.939,2.262 0.559,4.187c-0.079,0.247 -0.159,0.414 -0.249,0.493c0.04,0.117 0.069,0.286 0.069,0.491l-0,1.848c-0.089,5.043 -0.379,8.975 -0.877,11.807c2.285,6.724 5.329,11.6 9.123,14.638Zm-35.987,25.284c2.167,-0.984 5.023,-4.227 8.565,-9.723c-2.125,1.643 -3.952,3.362 -5.469,5.172c-1.518,1.798 -2.546,3.323 -3.096,4.551Zm24.867,-56.595c-0.629,1.721 -0.669,4.434 -0.131,8.121c0.041,-0.286 0.19,-1.19 0.441,-2.704c-0,-0.127 0.149,-1.002 0.438,-2.644c0.041,-0.167 0.12,-0.325 0.25,-0.492c-0.039,-0.04 -0.06,-0.088 -0.06,-0.128c0,-0.039 -0.01,-0.069 -0.039,-0.088c-0.021,-0.02 -0.031,-0.049 -0.031,-0.089c-0.039,-0.904 -0.31,-1.641 -0.809,-2.222c0,0.04 -0.02,0.09 -0.059,0.129l-0,0.117Zm-7.747,40.66c5.621,-2.212 11.531,-3.874 17.739,-4.985c-0.089,-0.038 -0.36,-0.236 -0.809,-0.579c-0.459,-0.344 -0.798,-0.63 -1.007,-0.837c-3.166,-2.742 -5.801,-6.35 -7.926,-10.823c-1.129,3.529 -2.856,7.57 -5.191,12.122c-1.249,2.291 -2.187,4.001 -2.806,5.102Zm40.349,-0.984c-0.999,-0.983 -3.913,-1.474 -8.745,-1.474c3.165,1.15 5.75,1.72 7.746,1.72c0.579,0 0.959,-0.02 1.119,-0.058c-0,-0.04 -0.04,-0.109 -0.12,-0.188Z"/>
</svg>