<svg width="100%" height="100%" viewBox="0 0 64 64" version="1.1"
  xmlns="http://www.w3.org/2000/svg"
  xmlns:xlink="http://www.w3.org/1999/xlink" xml:space="preserve"
  xmlns:serif="http://www.serif.com/" style="fill-rule:evenodd;clip-rule:evenodd;stroke-linejoin:round;stroke-miterlimit:2;">
  <path d="M62.931,40.236c-3.631,13.685 -16.1,23.764 -30.931,23.764c-9.661,-0 -18.329,-4.305 -24.191,-11.082l-5.729,3.995l-1.944,-22.712l20.641,9.673l-5.403,3.767c4.172,4.439 10.058,7.218 16.629,7.218c10.594,-0.019 19.491,-7.216 22.09,-16.991l8.838,2.368Zm1.069,-8.235l-0,0.051l-0.191,-0.051l0.191,0Zm-62.942,-8.185c3.617,-13.707 16.101,-23.814 30.945,-23.816c9.666,0 18.331,4.313 24.196,11.089l5.727,-3.994l1.949,22.709l-20.641,-9.668l5.402,-3.77c-4.175,-4.438 -10.06,-7.22 -16.633,-7.22c-10.611,0.017 -19.521,7.24 -22.102,17.04l-8.843,-2.37Z"/>
</svg>