<svg width="100%" height="100%" viewBox="0 0 64 64" version="1.1"
  xmlns="http://www.w3.org/2000/svg"
  xmlns:xlink="http://www.w3.org/1999/xlink" xml:space="preserve"
  xmlns:serif="http://www.serif.com/" style="fill-rule:evenodd;clip-rule:evenodd;stroke-linejoin:round;stroke-miterlimit:2;">
  <path d="M27.263,27.227c2.1,-2.922 4.366,-4.382 6.798,-4.382c2.226,0 4.168,0.951 5.826,2.854c1.399,1.604 2.207,3.704 2.427,6.301l3.578,0c0.371,-2.355 1.326,-4.34 2.866,-5.958c2.029,-2.132 4.465,-3.197 7.307,-3.197c2.132,0 3.885,0.564 5.258,1.693c1.374,1.129 2.061,2.302 2.061,3.518c0,0.6 -0.193,1.085 -0.58,1.456c-0.387,0.371 -0.928,0.557 -1.623,0.557c-0.931,0 -1.634,-0.3 -2.108,-0.9c-0.268,-0.332 -0.446,-0.963 -0.533,-1.895c-0.087,-0.932 -0.406,-1.642 -0.959,-2.132c-0.553,-0.474 -1.318,-0.71 -2.298,-0.71c-1.579,0 -2.85,0.584 -3.813,1.752c-1.225,1.483 -1.864,3.421 -1.915,5.816l14.445,0l0,2.344l-14.31,0c0.249,1.773 0.839,3.384 1.768,4.832c1.271,1.982 2.989,2.973 5.152,2.973c1.547,0 2.937,-0.529 4.169,-1.587c0.868,-0.727 1.713,-2.045 2.534,-3.956l0.687,0.332c-0.584,2.858 -1.729,5.057 -3.434,6.596c-1.706,1.54 -3.593,2.31 -5.661,2.31c-2.464,0 -4.611,-1.034 -6.443,-3.103c-1.832,-2.069 -2.748,-4.864 -2.748,-8.385l0,-0.012l-3.361,0c-0.174,3.466 -1.447,6.289 -3.816,8.468c-2.195,2.021 -4.642,3.032 -7.342,3.032c-1.264,0 -2.547,-0.229 -3.849,-0.687c-1.303,-0.458 -2.633,-1.145 -3.991,-2.061l0,-8.752l-7.367,0l0,3.304c0,2.069 0.04,3.336 0.119,3.802c0.079,0.466 0.209,0.778 0.39,0.936c0.182,0.158 0.391,0.237 0.628,0.237c0.253,0 0.474,-0.056 0.663,-0.166c0.332,-0.206 0.971,-0.782 1.919,-1.729l0,1.326c-1.769,2.369 -3.458,3.553 -5.069,3.553c-0.774,0 -1.39,-0.268 -1.847,-0.805c-0.458,-0.537 -0.695,-1.453 -0.711,-2.748c-2.227,1.721 -3.624,2.716 -4.193,2.985c-0.852,0.394 -1.76,0.592 -2.723,0.592c-1.501,0 -2.736,-0.514 -3.707,-1.54c-0.971,-1.026 -1.457,-2.376 -1.457,-4.05c0,-1.058 0.237,-1.974 0.711,-2.748c0.628,-1.043 1.707,-2.026 3.238,-2.949l-3.949,0l0,-2.344l8.938,0c0.946,-0.38 1.994,-0.779 3.142,-1.197l0,-0.853c0,-2.163 -0.344,-3.647 -1.03,-4.453c-0.687,-0.805 -1.686,-1.208 -2.997,-1.208c-0.995,0 -1.784,0.269 -2.368,0.806c-0.6,0.537 -0.9,1.153 -0.9,1.847l0.047,1.374c0,0.726 -0.186,1.287 -0.557,1.682c-0.371,0.395 -0.856,0.592 -1.456,0.592c-0.585,0 -1.062,-0.205 -1.433,-0.616c-0.371,-0.41 -0.557,-0.971 -0.557,-1.682c0,-1.358 0.695,-2.605 2.084,-3.742c1.39,-1.137 3.34,-1.705 5.851,-1.705c1.926,0 3.505,0.323 4.737,0.971c0.932,0.489 1.619,1.255 2.061,2.297c0.284,0.679 0.426,2.069 0.426,4.169l0,1.718l7.367,0l0,-11.382c0,-2.463 -0.06,-3.979 -0.178,-4.548c-0.119,-0.568 -0.304,-0.955 -0.557,-1.16c-0.252,-0.206 -0.568,-0.308 -0.947,-0.308c-0.442,0 -0.995,0.126 -1.658,0.379l-0.332,-0.829l6.514,-2.653l1.066,0l0,15.728Zm11.007,7.117l-11.007,0l0,7.378c0.805,0.79 1.638,1.386 2.499,1.789c0.86,0.402 1.741,0.604 2.641,0.604c1.437,0 2.775,-0.79 4.014,-2.369c1.24,-1.579 1.86,-3.876 1.86,-6.893c0,-0.172 -0.002,-0.342 -0.007,-0.509Zm-26.19,0l-4.765,0c-1.171,0.669 -2.015,1.369 -2.53,2.096c-0.537,0.758 -0.806,1.587 -0.806,2.488c0,1.136 0.34,2.08 1.019,2.83c0.679,0.75 1.46,1.125 2.345,1.125c1.2,0 2.779,-0.789 4.737,-2.369l0,-6.17Zm25.936,-2.344c-0.291,-1.436 -0.824,-2.62 -1.599,-3.554c-1.239,-1.492 -2.648,-2.238 -4.228,-2.238c-0.836,0 -1.673,0.213 -2.51,0.64c-0.632,0.315 -1.437,0.947 -2.416,1.894l0,3.258l10.753,0Z"/>
</svg>