<svg width="100%" height="100%" viewBox="0 0 64 64" version="1.1"
  xmlns="http://www.w3.org/2000/svg"
  xmlns:xlink="http://www.w3.org/1999/xlink" xml:space="preserve"
  xmlns:serif="http://www.serif.com/" style="fill-rule:evenodd;clip-rule:evenodd;stroke-linejoin:round;stroke-miterlimit:2;">
  <path d="M27.413,0l9.174,0l-0,37.013l-9.174,0l0,-37.013Zm-18.026,9.387l6.453,6.453c-2.133,2.098 -3.787,4.542 -4.96,7.333c-1.173,2.791 -1.76,5.734 -1.76,8.827c0,4.16 1.022,7.991 3.067,11.493c2.044,3.503 4.817,6.276 8.32,8.32c3.502,2.045 7.333,3.067 11.493,3.067c4.16,0 7.991,-1.022 11.493,-3.067c3.503,-2.044 6.276,-4.817 8.32,-8.32c2.045,-3.502 3.067,-7.333 3.067,-11.493c0,-2.062 -0.276,-4.08 -0.827,-6.053c-0.551,-1.974 -1.315,-3.805 -2.293,-5.494c-0.978,-1.689 -2.178,-3.226 -3.6,-4.613l6.453,-6.453c2.951,2.951 5.254,6.373 6.907,10.266c1.653,3.894 2.48,8.009 2.48,12.347c0,5.796 -1.431,11.147 -4.293,16.053c-2.863,4.907 -6.747,8.791 -11.654,11.654c-4.906,2.862 -10.257,4.293 -16.053,4.293c-5.796,0 -11.147,-1.431 -16.053,-4.293c-4.907,-2.863 -8.791,-6.747 -11.654,-11.654c-2.862,-4.906 -4.293,-10.257 -4.293,-16.053c0,-2.916 0.382,-5.751 1.147,-8.507c0.764,-2.755 1.84,-5.315 3.226,-7.68c1.387,-2.364 3.058,-4.506 5.014,-6.426Z"/>
</svg>