<svg width="100%" height="100%" viewBox="0 0 64 64" version="1.1"
  xmlns="http://www.w3.org/2000/svg"
  xmlns:xlink="http://www.w3.org/1999/xlink" xml:space="preserve"
  xmlns:serif="http://www.serif.com/" style="fill-rule:evenodd;clip-rule:evenodd;stroke-linejoin:round;stroke-miterlimit:2;">
  <path d="M50.114,33.848l-19.694,17.981c-0.258,0.213 -0.553,0.315 -0.885,0.315c-0.332,-0 -0.627,-0.102 -0.885,-0.315l-11.076,-10.113c-0.228,-0.236 -0.345,-0.505 -0.345,-0.808c0,-0.303 0.117,-0.562 0.345,-0.775l1.77,-1.61c0.233,-0.214 0.516,-0.32 0.848,-0.32c0.332,-0 0.627,0.106 0.885,0.32l8.458,7.722l17.076,-15.591c0.258,-0.208 0.553,-0.314 0.885,-0.314c0.332,-0 0.615,0.106 0.848,0.314l1.77,1.616c0.228,0.208 0.345,0.466 0.345,0.775c-0,0.303 -0.117,0.572 -0.345,0.803Zm-45.19,24.581l54.152,0l0,-35.958l-54.152,0l-0,35.958Zm14.764,-42.698l0,-10.113c0,-0.332 -0.111,-0.601 -0.344,-0.808c-0.228,-0.214 -0.523,-0.315 -0.885,-0.315l-2.459,0c-0.363,0 -0.658,0.101 -0.885,0.315c-0.234,0.207 -0.35,0.476 -0.35,0.808l-0,10.113c-0,0.325 0.116,0.595 0.35,0.808c0.227,0.208 0.522,0.315 0.885,0.315l2.459,-0c0.362,-0 0.657,-0.107 0.885,-0.315c0.233,-0.213 0.344,-0.483 0.344,-0.808Zm29.541,0l0,-10.113c0,-0.332 -0.116,-0.601 -0.35,-0.808c-0.227,-0.214 -0.522,-0.315 -0.879,-0.315l-2.465,0c-0.356,0 -0.651,0.101 -0.885,0.315c-0.227,0.207 -0.344,0.476 -0.344,0.808l-0,10.113c-0,0.325 0.117,0.595 0.344,0.808c0.234,0.208 0.529,0.315 0.885,0.315l2.465,-0c0.357,-0 0.652,-0.107 0.879,-0.315c0.234,-0.213 0.35,-0.483 0.35,-0.808Zm14.771,-2.25l-0,44.948c-0,1.218 -0.492,2.273 -1.463,3.165c-0.977,0.887 -2.133,1.33 -3.461,1.33l-54.152,0c-1.334,0 -2.49,-0.443 -3.461,-1.33c-0.977,-0.892 -1.463,-1.947 -1.463,-3.165l-0,-44.948c-0,-1.218 0.486,-2.268 1.463,-3.16c0.971,-0.887 2.127,-1.33 3.461,-1.33l4.923,-0l0,-3.373c0,-1.543 0.602,-2.868 1.807,-3.968c1.205,-1.1 2.649,-1.65 4.346,-1.65l2.459,-0c1.69,-0 3.141,0.55 4.345,1.65c1.205,1.1 1.808,2.425 1.808,3.968l-0,3.373l14.77,-0l0,-3.373c0,-1.543 0.603,-2.868 1.807,-3.968c1.205,-1.1 2.656,-1.65 4.346,-1.65l2.465,-0c1.69,-0 3.141,0.55 4.346,1.65c1.205,1.1 1.807,2.425 1.807,3.968l-0,3.373l4.923,-0c1.328,-0 2.484,0.443 3.461,1.33c0.971,0.892 1.463,1.942 1.463,3.16Z"/>
</svg>