<svg width="100%" height="100%" viewBox="0 0 64 64" version="1.1"
  xmlns="http://www.w3.org/2000/svg"
  xmlns:xlink="http://www.w3.org/1999/xlink" xml:space="preserve"
  xmlns:serif="http://www.serif.com/" style="fill-rule:evenodd;clip-rule:evenodd;stroke-linejoin:round;stroke-miterlimit:2;">
  <path d="M53.979,53.202l-43.959,0l0,2.798l43.959,0l0,-2.798Zm-15.085,-41.213l0,-1.049l13.619,0l0,1.049l-1.447,0c-1.513,0 -2.676,0.634 -3.49,1.901c-0.397,0.587 -0.595,1.948 -0.595,4.086l0,15.605c0,3.858 -0.383,6.852 -1.149,8.979c-0.767,2.128 -2.27,3.954 -4.512,5.476c-2.241,1.523 -5.291,2.284 -9.15,2.284c-4.199,0 -7.386,-0.728 -9.561,-2.184c-2.175,-1.457 -3.717,-3.414 -4.625,-5.873c-0.605,-1.684 -0.908,-4.843 -0.908,-9.477l0,-15.037c0,-2.364 -0.326,-3.916 -0.979,-4.653c-0.652,-0.738 -1.707,-1.107 -3.163,-1.107l-1.447,0l0,-1.049l16.626,0l0,1.049l-1.475,0c-1.589,0 -2.724,0.502 -3.405,1.504c-0.473,0.681 -0.709,2.1 -0.709,4.256l0,16.768c0,1.494 0.137,3.206 0.411,5.135c0.274,1.93 0.771,3.433 1.49,4.512c0.718,1.078 1.754,1.967 3.106,2.667c1.353,0.699 3.013,1.049 4.98,1.049c2.515,0 4.766,-0.548 6.752,-1.645c1.986,-1.097 3.344,-2.502 4.072,-4.214c0.728,-1.711 1.092,-4.61 1.092,-8.696l0,-15.576c0,-2.402 -0.265,-3.906 -0.794,-4.511c-0.738,-0.833 -1.835,-1.249 -3.292,-1.249l-1.447,0Z"/>
</svg>