<svg width="100%" height="100%" viewBox="0 0 64 64" version="1.1"
  xmlns="http://www.w3.org/2000/svg"
  xmlns:xlink="http://www.w3.org/1999/xlink" xml:space="preserve"
  xmlns:serif="http://www.serif.com/" style="fill-rule:evenodd;clip-rule:evenodd;stroke-linejoin:round;stroke-miterlimit:2;">
  <path d="M12.301,22l0,-2.301c0,-10.863 8.836,-19.699 19.699,-19.699c10.863,-0 19.699,8.836 19.699,19.699l-0,12.301l4.301,-0l0,32l-48,-0l0,-32l35.93,-0l0,-12.301c0,-6.579 -5.351,-11.93 -11.93,-11.93c-6.579,-0 -11.93,5.351 -11.93,11.93l-0,2.301l-7.769,0Zm24.742,34l-2.71,-7.821c1.736,-0.864 2.939,-2.635 2.939,-4.704c-0,-2.914 -2.36,-5.271 -5.272,-5.271c-2.912,-0 -5.272,2.359 -5.272,5.271c0,2.067 1.203,3.84 2.939,4.704l-2.712,7.821l10.088,0Z"/>
</svg>