<svg width="100%" height="100%" viewBox="0 0 64 64" version="1.1"
  xmlns="http://www.w3.org/2000/svg"
  xmlns:xlink="http://www.w3.org/1999/xlink" xml:space="preserve"
  xmlns:serif="http://www.serif.com/" style="fill-rule:evenodd;clip-rule:evenodd;stroke-linejoin:round;stroke-miterlimit:2;">
  <path d="M59.82,33.638l2.949,0.744c-0.618,2.422 -1.73,4.269 -3.336,5.54c-1.606,1.272 -3.569,1.907 -5.889,1.907c-2.402,0 -4.355,-0.488 -5.859,-1.466c-1.505,-0.978 -2.65,-2.394 -3.435,-4.248c-0.785,-1.854 -1.178,-3.845 -1.178,-5.973c0,-2.32 0.443,-4.344 1.33,-6.072c0.886,-1.727 2.148,-3.039 3.784,-3.936c1.637,-0.897 3.438,-1.345 5.403,-1.345c2.229,0 4.104,0.567 5.624,1.702c1.519,1.135 2.578,2.731 3.176,4.788l-2.903,0.683c-0.517,-1.621 -1.266,-2.801 -2.249,-3.541c-0.983,-0.739 -2.219,-1.109 -3.709,-1.109c-1.712,0 -3.143,0.41 -4.293,1.231c-1.15,0.821 -1.958,1.922 -2.424,3.305c-0.466,1.384 -0.699,2.81 -0.699,4.279c0,1.895 0.276,3.549 0.828,4.962c0.552,1.413 1.411,2.47 2.576,3.169c1.165,0.699 2.427,1.049 3.784,1.049c1.652,0 3.05,-0.477 4.195,-1.429c1.145,-0.952 1.92,-2.366 2.325,-4.24Zm-59.866,7.812l8.557,-22.281l3.176,0l9.119,22.281l-3.358,0l-2.599,-6.749l-9.317,0l-2.447,6.749l-3.131,0Zm23.087,0l0,-22.281l8.359,0c1.702,0 3.067,0.225 4.096,0.676c1.028,0.451 1.834,1.145 2.416,2.082c0.583,0.938 0.874,1.918 0.874,2.941c0,0.953 -0.258,1.849 -0.775,2.69c-0.517,0.841 -1.297,1.52 -2.341,2.037c1.348,0.395 2.384,1.069 3.108,2.021c0.725,0.953 1.087,2.077 1.087,3.374c0,1.044 -0.22,2.014 -0.661,2.911c-0.441,0.896 -0.985,1.588 -1.634,2.074c-0.648,0.487 -1.461,0.854 -2.439,1.102c-0.978,0.248 -2.176,0.373 -3.595,0.373l-8.495,0Zm2.948,-2.63l5.547,0c0.953,0 1.622,-0.035 2.007,-0.106c0.678,-0.122 1.246,-0.324 1.702,-0.608c0.456,-0.284 0.831,-0.697 1.125,-1.239c0.293,-0.542 0.44,-1.167 0.44,-1.877c0,-0.831 -0.213,-1.552 -0.638,-2.165c-0.426,-0.613 -1.016,-1.044 -1.771,-1.292c-0.755,-0.249 -1.841,-0.373 -3.26,-0.373l-5.152,0l0,7.66Zm-19.606,-6.52l7.554,0l-2.326,-6.17c-0.709,-1.875 -1.236,-3.415 -1.58,-4.621c-0.284,1.429 -0.684,2.848 -1.201,4.256l-2.447,6.535Zm19.606,-3.769l4.818,0c1.307,0 2.244,-0.086 2.812,-0.258c0.749,-0.223 1.314,-0.593 1.694,-1.11c0.38,-0.517 0.57,-1.165 0.57,-1.945c0,-0.74 -0.177,-1.391 -0.532,-1.953c-0.354,-0.563 -0.861,-0.948 -1.52,-1.155c-0.658,-0.208 -1.788,-0.312 -3.389,-0.312l-4.453,0l0,6.733Z"/>
</svg>