<svg width="100%" height="100%" viewBox="0 0 64 64" version="1.1"
  xmlns="http://www.w3.org/2000/svg"
  xmlns:xlink="http://www.w3.org/1999/xlink" xml:space="preserve"
  xmlns:serif="http://www.serif.com/" style="fill-rule:evenodd;clip-rule:evenodd;stroke-linejoin:round;stroke-miterlimit:2;">
  <path d="M42.967,50.593c2.415,0.965 15.82,6.157 16.912,7.244c1.09,1.09 0.964,6.161 0.964,6.161l-57.481,-0c-0,-0 -0.124,-5.071 0.966,-6.161c1.09,-1.087 14.495,-6.279 16.909,-7.244c2.415,-0.966 3.379,-3.622 3.379,-3.622c0,0 1.088,0.602 1.088,-1.088c0,-1.689 -1.088,1.088 -2.174,-5.435c0,0 -3.018,-0.847 -2.414,-7.85l0.719,-0.241c-0.604,-1.207 -1.208,-6.883 -1.208,-7.73c0,-0.847 1.208,-4.226 1.933,-4.951c0.723,-0.725 2.534,-0.847 2.534,-0.847c0,-0.845 2.417,-2.413 5.316,-2.534c2.899,-0.124 1.446,-0.365 5.433,0.845c3.987,1.209 4.71,2.899 6.523,5.435c1.811,2.536 -0,10.023 -0,10.023l0.725,0c0.602,7.003 -2.415,7.85 -2.415,7.85c-1.087,6.523 -2.175,3.746 -2.175,5.435c-0,1.69 1.088,1.088 1.088,1.088c-0,0 0.964,2.656 3.378,3.622Zm-26.6,-0.367c-10.3,4.102 -12.79,5.348 -13.549,6.105c-1.427,1.423 -1.653,4.941 -1.591,7.667l-1.227,-0l-0,-11.165c0.198,-0.077 0.365,-0.145 0.495,-0.196c2.048,-0.815 2.865,-3.07 2.865,-3.07c-0,0 0.921,0.51 0.921,-0.921c0,-1.432 -0.921,0.921 -1.843,-4.606c0,0 -2.555,-0.716 -2.046,-6.653l0.611,-0.205c-0.451,-0.902 -0.901,-4.733 -1.001,-6.126l0,-0.599c0.111,-0.903 1.037,-3.443 1.615,-4.021c0.614,-0.615 2.15,-0.717 2.15,-0.717c0,-0.719 2.048,-2.048 4.505,-2.15c2.455,-0.105 1.229,-0.307 4.606,0.717c3.376,1.023 3.991,2.457 5.527,4.605c0.437,0.612 0.62,1.566 0.665,2.615l-0.081,0.909c-0.066,0.768 -0.087,1.467 -0.079,2.124c-0.2,1.585 -0.505,2.846 -0.505,2.846l0.614,0c0.512,5.937 -2.046,6.653 -2.046,6.653c-0.921,5.527 -1.843,3.174 -1.843,4.606c0,1.431 0.922,0.921 0.922,0.921c-0,0 0.104,0.277 0.315,0.661Zm47.633,-19.317l-0.006,-0l-0,2.508c-0.165,2.072 -0.623,3.97 -0.623,3.97l0.616,0c0.004,0.039 0.004,0.071 0.007,0.109l-0,2.617c-0.34,3.439 -2.055,3.927 -2.055,3.927c-0.919,5.527 -1.843,3.174 -1.843,4.606c0,1.431 0.924,0.921 0.924,0.921c0,0 0.819,2.253 2.865,3.07c0.03,0.013 0.077,0.032 0.111,0.045l-0,11.318l-1.024,-0c0.062,-2.728 -0.162,-6.244 -1.591,-7.666c-0.751,-0.756 -3.219,-1.993 -13.394,-6.046c0.234,-0.418 0.347,-0.721 0.347,-0.721c0,0 0.922,0.51 0.922,-0.921c-0,-1.432 -0.92,0.921 -1.841,-4.606c-0,0 -2.558,-0.716 -2.048,-6.653l0.61,-0.205c-0.256,-0.509 -0.512,-1.968 -0.704,-3.389c-0.01,-0.446 -0.015,-0.883 -0.057,-1.376l-0.171,-1.948l-0.07,0c0.104,-0.893 1.039,-3.453 1.617,-4.033c0.616,-0.615 2.15,-0.717 2.15,-0.717c-0,-0.719 2.048,-2.048 4.503,-2.15c2.457,-0.105 1.228,-0.307 4.607,0.717c3.375,1.023 3.991,2.455 5.525,4.605c0.352,0.493 0.538,1.212 0.623,2.018Z"/>
</svg>