<svg width="100%" height="100%" viewBox="0 0 64 64" version="1.1"
  xmlns="http://www.w3.org/2000/svg"
  xmlns:xlink="http://www.w3.org/1999/xlink" xml:space="preserve"
  xmlns:serif="http://www.serif.com/" style="fill-rule:evenodd;clip-rule:evenodd;stroke-linejoin:round;stroke-miterlimit:2;">
  <path d="M63.923,29.867c-1.049,-15.975 -13.815,-28.745 -29.79,-29.794l0,-0.073l-4.266,-0l-0,0.073c-15.975,1.049 -28.745,13.819 -29.794,29.794l-0.073,-0l-0,4.266l0.073,0c1.049,15.975 13.819,28.741 29.794,29.79l-0,0.077l4.266,0l0,-0.077c15.975,-1.049 28.741,-13.815 29.79,-29.79l0.077,0l0,-4.266l-0.077,-0Zm-43.891,-22.891c-2.061,2.739 -3.772,6.174 -5.018,10.091l-6.391,-0c2.782,-4.34 6.733,-7.851 11.409,-10.091Zm-13.641,14.357l7.501,0c-0.571,2.697 -0.934,5.56 -1.049,8.534l-8.495,-0c0.226,-3.004 0.934,-5.876 2.043,-8.534Zm-2.043,12.8l8.495,0c0.115,2.974 0.478,5.837 1.049,8.534l-7.501,-0c-1.109,-2.658 -1.817,-5.53 -2.043,-8.534Zm4.275,12.8l6.387,0c1.246,3.917 2.957,7.352 5.022,10.091c-4.676,-2.24 -8.627,-5.747 -11.409,-10.091Zm21.244,12.527c-4.386,-1.173 -8.162,-5.883 -10.454,-12.527l10.454,0l-0,12.527Zm-0,-16.793l-11.653,-0c-0.601,-2.658 -0.981,-5.53 -1.105,-8.534l12.758,0l-0,8.534Zm-0,-12.8l-12.758,-0c0.124,-3.004 0.504,-5.876 1.105,-8.534l11.653,0l-0,8.534Zm-0,-12.8l-10.454,-0c2.292,-6.644 6.068,-11.354 10.454,-12.523l-0,12.523Zm25.51,-0l-6.383,-0c-1.25,-3.917 -2.957,-7.352 -5.026,-10.091c4.672,2.24 8.627,5.751 11.409,10.091Zm-21.244,-12.523c4.382,1.169 8.162,5.879 10.454,12.523l-10.454,-0l0,-12.523Zm0,16.789l11.648,0c0.606,2.658 0.977,5.53 1.11,8.534l-12.758,-0l0,-8.534Zm0,12.8l12.758,0c-0.124,3.004 -0.504,5.876 -1.11,8.534l-11.648,-0l0,-8.534Zm0,25.327l0,-12.527l10.454,0c-2.292,6.644 -6.072,11.354 -10.454,12.527Zm9.835,-2.436c2.061,-2.743 3.776,-6.174 5.026,-10.091l6.383,0c-2.782,4.344 -6.737,7.851 -11.409,10.091Zm13.641,-14.357l-7.501,-0c0.571,-2.697 0.934,-5.56 1.049,-8.534l8.491,0c-0.222,3.004 -0.93,5.876 -2.039,8.534Zm-6.452,-12.8c-0.115,-2.974 -0.478,-5.837 -1.049,-8.534l7.501,0c1.109,2.658 1.817,5.53 2.043,8.534l-8.495,-0Z"/>
</svg>