<svg xmlns="http://www.w3.org/2000/svg" xmlns:xlink="http://www.w3.org/1999/xlink" width="0" height="0" style="display:none;"><symbol viewBox="0 0 64 64" id="zixfont-alignBottom">
  <path d="M64,56l-64,0l0,-48l64,0l0,48Zm-63,-47l0,46l62,0l0,-46l-62,0Zm58.5,38.238l-55,0l0,5.093l55,0l0,-5.093Zm0,-8.784l-55,0l0,5.093l55,0l0,-5.093Zm0,-8.785l-55,0l0,5.093l55,0l0,-5.093Z"></path>
</symbol><symbol viewBox="0 0 64 64" id="zixfont-alignCenter">
  <path d="M64,51l-64,0l0,5l64,0l0,-5Zm-8,-10.75l-48,0l0,5l48,0l0,-5Zm8,-10.75l-64,0l0,5l64,0l0,-5Zm-8,-10.75l-48,0l0,5l48,0l0,-5Zm8,-10.75l-64,0l0,5l64,0l0,-5Z"></path>
</symbol><symbol viewBox="0 0 64 64" id="zixfont-alignLeft">
  <path d="M64,51l-64,0l0,5l64,0l0,-5Zm-16,-10.75l-48,0l0,5l48,0l0,-5Zm16,-10.75l-64,0l0,5l64,0l0,-5Zm-16,-10.75l-48,0l0,5l48,0l0,-5Zm16,-10.75l-64,0l0,5l64,0l0,-5Z"></path>
</symbol><symbol viewBox="0 0 64 64" id="zixfont-alignMiddle">
  <path d="M64,56l-64,0l0,-48l64,0l0,48Zm-63,-47l0,46l62,0l0,-46l-62,0Zm58.5,29.238l-55,0l0,5.093l55,0l0,-5.093Zm0,-8.784l-55,0l0,5.093l55,0l0,-5.093Zm0,-8.785l-55,0l0,5.093l55,0l0,-5.093Z"></path>
</symbol><symbol viewBox="0 0 64 64" id="zixfont-alignRight">
  <path d="M64,51l-64,0l0,5l64,0l0,-5Zm0,-10.75l-48,0l0,5l48,0l0,-5Zm0,-10.75l-64,0l0,5l64,0l0,-5Zm0,-10.75l-48,0l0,5l48,0l0,-5Zm0,-10.75l-64,0l0,5l64,0l0,-5Z"></path>
</symbol><symbol viewBox="0 0 64 64" id="zixfont-alignTop">
  <path d="M64,56l-64,0l0,-48l64,0l0,48Zm-63,-47l0,46l62,0l0,-46l-62,0Zm58.5,20.238l-55,0l0,5.093l55,0l0,-5.093Zm0,-8.784l-55,0l0,5.093l55,0l0,-5.093Zm0,-8.785l-55,0l0,5.093l55,0l0,-5.093Z"></path>
</symbol><symbol viewBox="0 0 64 64" id="zixfont-anchor">
  <path d="M34.289,10.16c0,-1.25 -0.228,-2.102 -0.679,-2.557c-0.457,-0.455 -0.988,-0.686 -1.61,-0.686c-0.616,0 -1.153,0.231 -1.61,0.686c-0.451,0.455 -0.673,0.996 -0.673,1.618c0,0.628 0.222,1.169 0.673,1.624c0.457,0.455 0.994,0.686 1.61,0.686c0.622,0 1.381,-0.455 2.289,-1.371Zm29.711,32.507l0,12.682c0,0.53 -0.234,0.893 -0.714,1.083c-0.188,0.052 -0.331,0.075 -0.428,0.075c-0.308,0 -0.582,-0.109 -0.822,-0.328l-3.322,-3.347c-2.831,3.433 -6.621,6.152 -11.376,8.162c-4.749,2.004 -9.864,3.006 -15.338,3.006c-5.474,0 -10.589,-1.002 -15.338,-3.006c-4.749,-2.01 -8.545,-4.729 -11.376,-8.162l-3.322,3.347c-0.217,0.219 -0.491,0.328 -0.822,0.328c-0.097,0 -0.24,-0.023 -0.428,-0.075c-0.48,-0.19 -0.714,-0.553 -0.714,-1.083l0,-12.682c0,-0.334 0.108,-0.611 0.32,-0.829c0.217,-0.214 0.491,-0.323 0.822,-0.323l12.569,0c0.525,0 0.885,0.242 1.073,0.72c0.194,0.455 0.109,0.875 -0.251,1.261l-3.568,3.606c1.593,2.182 3.848,4.026 6.765,5.529c2.916,1.503 6.153,2.494 9.698,2.972l0,-23.315l-6.856,0c-0.622,0 -1.153,-0.23 -1.609,-0.685c-0.451,-0.455 -0.68,-0.997 -0.68,-1.619l0,-4.613c0,-0.628 0.229,-1.169 0.68,-1.624c0.456,-0.455 0.987,-0.686 1.609,-0.686l6.856,0l0,-5.874c-1.382,-0.818 -2.489,-1.924 -3.322,-3.33c-0.834,-1.405 -1.25,-2.948 -1.25,-4.63c0,-2.552 0.896,-4.723 2.682,-6.526c1.781,-1.802 3.939,-2.701 6.462,-2.701c2.523,0 4.681,0.899 6.467,2.701c1.787,1.803 2.677,3.974 2.677,6.526c0,1.682 -0.416,3.225 -1.25,4.63c-0.833,1.406 -1.94,2.512 -3.322,3.33l0,5.874l6.856,-0c0.622,-0 1.159,0.231 1.609,0.686c0.451,0.455 0.68,0.996 0.68,1.624l0,4.613c0,0.622 -0.229,1.164 -0.68,1.619c-0.45,0.455 -0.987,0.685 -1.609,0.685l-6.856,0l0,23.315c3.551,-0.478 6.782,-1.469 9.698,-2.972c2.917,-1.503 5.172,-3.347 6.77,-5.529l-3.573,-3.606c-0.36,-0.386 -0.44,-0.806 -0.251,-1.261c0.188,-0.478 0.548,-0.72 1.073,-0.72l12.569,0c0.337,0 0.611,0.109 0.822,0.323c0.217,0.218 0.32,0.495 0.32,0.829Z"></path>
</symbol><symbol viewBox="0 0 64 64" id="zixfont-arrowDown">
  <path d="M37,44.911l19.923,-19.923l7.077,7.012l-24.923,24.977l-7.077,7.023l-7.077,-7.012l-24.923,-24.988l7.077,-7.023l19.923,19.932l0,-44.909l10,-0l0,44.911Z"></path>
</symbol><symbol viewBox="0 0 64 64" id="zixfont-arrowLeft">
  <path d="M19.089,27l19.923,-19.923l-7.012,-7.077l-24.977,24.923l-7.023,7.077l7.012,7.077l24.988,24.923l7.023,-7.077l-19.932,-19.923l44.909,-0l0,-10l-44.911,-0Z"></path>
</symbol><symbol viewBox="0 0 64 64" id="zixfont-arrowRight">
  <path d="M44.911,37l-19.923,19.923l7.012,7.077l24.977,-24.923l7.023,-7.077l-7.012,-7.077l-24.988,-24.923l-7.023,7.077l19.932,19.923l-44.909,0l-0,10l44.911,0Z"></path>
</symbol><symbol viewBox="0 0 64 64" id="zixfont-arrowUp">
  <path d="M37,19.089l19.923,19.923l7.077,-7.012l-24.923,-24.977l-7.077,-7.023l-7.077,7.012l-24.923,24.988l7.077,7.023l19.923,-19.932l0,44.909l10,-0l0,-44.911Z"></path>
</symbol><symbol viewBox="0 0 64 64" id="zixfont-attachment">
  <path d="M55.572,1.982c-4.758,-3.407 -11.381,-2.314 -14.791,2.447l-26.746,37.342c-2.435,3.398 -1.653,8.128 1.747,10.563c3.401,2.432 8.128,1.651 10.563,-1.75l18.885,-26.365l-2.462,-1.765l-18.882,26.367c-1.463,2.035 -4.3,2.508 -6.335,1.051c-2.038,-1.456 -2.505,-4.297 -1.045,-6.338l26.743,-37.339l0.003,-0.003l-0.006,-0.004c2.432,-3.388 7.174,-4.173 10.566,-1.744c3.392,2.432 4.176,7.174 1.747,10.566l0,-0.003l-29.314,40.931l0.003,0.003c-3.404,4.751 -10.042,5.848 -14.793,2.447c-4.752,-3.407 -5.845,-10.039 -2.444,-14.794l21.304,-29.744l-2.462,-1.762l-21.304,29.744c-4.382,6.117 -2.974,14.627 3.146,19.009c6.121,4.385 14.63,2.974 19.012,-3.141l29.315,-40.931c3.4,-4.757 2.31,-11.377 -2.45,-14.787Z"></path>
</symbol><symbol viewBox="0 0 64 64" id="zixfont-bed">
  <path d="M17.455,33.467c4.829,-0 8.727,-3.931 8.727,-8.8c-0,-4.87 -3.898,-8.8 -8.727,-8.8c-4.83,-0 -8.728,3.93 -8.728,8.8c0,4.869 3.898,8.8 8.728,8.8Zm46.545,-17.6l-34.909,-0l-0,20.533l-23.273,0l0,-26.4l-5.818,0l-0,44l5.818,0l0,-8.8l52.364,0l0,8.8l5.818,0l0,-38.133Z"></path>
</symbol><symbol viewBox="0 0 64 64" id="zixfont-bold">
  <path d="M12,47.733l5,-0l-0,-33.466l-5,-0l-0,-3.267l23.281,-0c4.792,-0 8.386,0.823 10.781,2.47c2.396,1.647 3.594,4.117 3.594,7.41c-0,2.391 -0.833,4.277 -2.5,5.658c-1.666,1.381 -4.114,2.257 -7.344,2.629c3.907,0.372 6.915,1.448 9.024,3.227c2.109,1.78 3.164,4.131 3.164,7.052c-0,3.931 -1.484,6.853 -4.453,8.765c-2.917,1.859 -7.5,2.789 -13.75,2.789l-21.797,-0l-0,-3.267Zm15.156,-0l3.75,-0c3.334,-0 5.808,-0.677 7.422,-2.032c1.615,-1.354 2.422,-3.439 2.422,-6.255c-0,-2.868 -0.82,-5.006 -2.461,-6.414c-1.641,-1.408 -4.102,-2.112 -7.383,-2.112l-3.75,-0l-0,16.813Zm-0,-20.08l3.438,-0c3.021,-0 5.26,-0.531 6.718,-1.593c1.459,-1.169 2.188,-2.895 2.188,-5.18c-0,-2.337 -0.729,-4.037 -2.188,-5.099c-1.406,-1.009 -3.645,-1.514 -6.718,-1.514l-3.438,-0l-0,13.386Z"></path>
</symbol><symbol viewBox="0 0 64 64" id="zixfont-calendar">
  <path d="M4.924,59.428l11.076,0l0,-10.285l-11.076,-0l-0,10.285Zm13.541,0l12.306,0l-0,-10.285l-12.306,-0l-0,10.285Zm-13.541,-12.574l11.076,0l0,-11.427l-11.076,0l-0,11.427Zm13.541,0l12.306,0l-0,-11.427l-12.306,0l-0,11.427Zm-13.541,-13.71l11.076,0l0,-10.285l-11.076,0l-0,10.285Zm28.305,26.284l12.312,0l0,-10.285l-12.312,-0l0,10.285Zm-14.764,-26.284l12.306,0l-0,-10.285l-12.306,0l-0,10.285Zm29.535,26.284l11.076,0l0,-10.285l-11.076,-0l-0,10.285Zm-14.771,-12.574l12.312,0l0,-11.427l-12.312,0l0,11.427Zm-13.535,-30.856l0,-10.285c0,-0.308 -0.123,-0.576 -0.369,-0.805c-0.239,-0.222 -0.528,-0.336 -0.86,-0.336l-2.465,-0c-0.332,-0 -0.621,0.114 -0.867,0.336c-0.239,0.229 -0.362,0.497 -0.362,0.805l-0,10.285c-0,0.309 0.123,0.577 0.362,0.805c0.246,0.229 0.535,0.343 0.867,0.343l2.465,-0c0.332,-0 0.621,-0.114 0.86,-0.343c0.246,-0.228 0.369,-0.496 0.369,-0.805Zm28.306,30.856l11.076,0l0,-11.427l-11.076,0l-0,11.427Zm-14.771,-13.71l12.312,0l0,-10.285l-12.312,0l0,10.285Zm14.771,0l11.076,0l0,-10.285l-11.076,0l-0,10.285Zm1.229,-17.146l0,-10.285c0,-0.308 -0.123,-0.576 -0.362,-0.805c-0.246,-0.222 -0.535,-0.336 -0.867,-0.336l-2.459,-0c-0.338,-0 -0.627,0.114 -0.866,0.336c-0.246,0.229 -0.369,0.497 -0.369,0.805l-0,10.285c-0,0.309 0.123,0.577 0.369,0.805c0.239,0.229 0.528,0.343 0.866,0.343l2.459,-0c0.332,-0 0.621,-0.114 0.867,-0.343c0.239,-0.228 0.362,-0.496 0.362,-0.805Zm14.771,-2.282l-0,45.712c-0,1.238 -0.486,2.306 -1.463,3.213c-0.971,0.902 -2.127,1.359 -3.461,1.359l-54.152,0c-1.334,0 -2.49,-0.457 -3.461,-1.359c-0.977,-0.907 -1.463,-1.975 -1.463,-3.213l0,-45.712c0,-1.239 0.486,-2.312 1.463,-3.214c0.971,-0.908 2.127,-1.358 3.461,-1.358l4.923,-0l0,-3.431c0,-1.569 0.602,-2.916 1.807,-4.035c1.205,-1.119 2.656,-1.678 4.346,-1.678l2.465,-0c1.69,-0 3.141,0.559 4.346,1.678c1.204,1.119 1.807,2.466 1.807,4.035l-0,3.431l14.764,-0l0,-3.431c0,-1.569 0.603,-2.916 1.807,-4.035c1.211,-1.119 2.656,-1.678 4.352,-1.678l2.459,-0c1.69,-0 3.141,0.559 4.346,1.678c1.205,1.119 1.807,2.466 1.807,4.035l-0,3.431l4.923,-0c1.334,-0 2.49,0.45 3.461,1.358c0.977,0.902 1.463,1.975 1.463,3.214Z"></path>
</symbol><symbol viewBox="0 0 64 64" id="zixfont-camera">
  <path d="M22.4,-0l-5.856,7.603l-16.544,0l-0,56.397l64,0l-0,-56.397l-16.544,0l-5.856,-7.603l-19.2,-0Zm9.6,51.809c-8.832,0 -16,-7.395 -16,-16.507c-0,-9.113 7.168,-16.508 16,-16.508c8.832,-0 16,7.395 16,16.508c-0,9.112 -7.168,16.507 -16,16.507Zm-0,-7.666c5.049,-0 9.143,-4.094 9.143,-9.143c-0,-5.049 -4.094,-9.143 -9.143,-9.143c-5.049,0 -9.143,4.094 -9.143,9.143c0,5.049 4.094,9.143 9.143,9.143Z"></path>
</symbol><symbol viewBox="0 0 64 64" id="zixfont-capitalize">
  <path d="M55.839,35.507l2.69,0.35c-0.294,1.854 -1.047,3.305 -2.257,4.354c-1.211,1.049 -2.698,1.573 -4.461,1.573c-2.209,0 -3.985,-0.722 -5.327,-2.166c-1.343,-1.444 -2.014,-3.513 -2.014,-6.208c0,-1.743 0.289,-3.268 0.866,-4.575c0.578,-1.307 1.457,-2.287 2.637,-2.941c1.181,-0.653 2.465,-0.98 3.853,-0.98c1.753,0 3.187,0.443 4.301,1.33c1.115,0.886 1.829,2.145 2.143,3.776l-2.659,0.411c-0.254,-1.084 -0.702,-1.9 -1.346,-2.447c-0.643,-0.547 -1.421,-0.821 -2.332,-0.821c-1.378,0 -2.498,0.494 -3.359,1.482c-0.862,0.988 -1.292,2.551 -1.292,4.689c0,2.168 0.415,3.743 1.246,4.726c0.831,0.983 1.915,1.475 3.253,1.475c1.074,0 1.97,-0.33 2.69,-0.988c0.719,-0.659 1.175,-1.672 1.368,-3.04Zm-25.321,5.912l-2.538,-0l0,-22.281l2.736,-0l0,7.949c1.155,-1.449 2.629,-2.173 4.422,-2.173c0.993,-0 1.933,0.2 2.82,0.6c0.886,0.4 1.616,0.963 2.188,1.687c0.573,0.725 1.021,1.598 1.345,2.622c0.325,1.023 0.487,2.117 0.487,3.283c0,2.766 -0.684,4.904 -2.052,6.413c-1.368,1.51 -3.009,2.265 -4.924,2.265c-1.905,-0 -3.4,-0.795 -4.484,-2.386l0,2.021Zm-25.381,-0l8.557,-22.281l3.176,-0l9.119,22.281l-3.359,-0l-2.599,-6.748l-9.316,-0l-2.447,6.748l-3.131,-0Zm25.351,-8.192c-0,1.936 0.263,3.334 0.79,4.195c0.861,1.408 2.027,2.113 3.496,2.113c1.195,-0 2.229,-0.52 3.1,-1.558c0.872,-1.039 1.307,-2.587 1.307,-4.643c-0,-2.108 -0.418,-3.663 -1.254,-4.666c-0.836,-1.003 -1.846,-1.505 -3.032,-1.505c-1.195,-0 -2.229,0.519 -3.1,1.558c-0.872,1.039 -1.307,2.541 -1.307,4.506Zm-18.922,-0.957l7.553,-0l-2.325,-6.171c-0.709,-1.874 -1.236,-3.414 -1.581,-4.62c-0.283,1.429 -0.683,2.847 -1.2,4.256l-2.447,6.535Z"></path>
</symbol><symbol viewBox="0 0 64 64" id="zixfont-charts">
  <path d="M64,-0l0,64l-64,-0l-0,-64l64,-0Zm-2.085,2.012l-60,-0l-0,59.937l60,-0l-0,-59.937Zm-43.915,38.022l-0,16l-8,-0l-0,-16l8,-0Zm12,-20l-0,36l-8,-0l-0,-36l8,-0Zm12,12l-0,24l-8,-0l-0,-24l8,-0Zm12,-22l-0,46l-8,-0l-0,-46l8,-0Z"></path>
</symbol><symbol viewBox="0 0 64 64" id="zixfont-check">
  <path d="M56.929,6.971l7.071,7.071l-42.987,42.987l-21.013,-21.013l7.105,-7.037l13.995,13.995l35.829,-36.003Z"></path>
</symbol><symbol viewBox="0 0 64 64" id="zixfont-chevronDown">
  <path d="M32,51.512l7.077,-7.024l24.923,-24.976l-7.077,-7.013l-24.923,24.924l-24.923,-24.935l-7.077,7.024l24.923,24.987l7.077,7.013Z"></path>
</symbol><symbol viewBox="0 0 64 64" id="zixfont-chevronLeft">
  <path d="M12.488,32l7.024,7.077l24.976,24.923l7.013,-7.077l-24.924,-24.923l24.935,-24.923l-7.024,-7.077l-24.987,24.923l-7.013,7.077Z"></path>
</symbol><symbol viewBox="0 0 64 64" id="zixfont-chevronRight">
  <path d="M51.512,32l-7.024,7.077l-24.976,24.923l-7.013,-7.077l24.924,-24.923l-24.935,-24.923l7.024,-7.077l24.987,24.923l7.013,7.077Z"></path>
</symbol><symbol viewBox="0 0 64 64" id="zixfont-chevronUp">
  <path d="M32,12.488l7.077,7.024l24.923,24.976l-7.077,7.013l-24.923,-24.924l-24.923,24.935l-7.077,-7.024l24.923,-24.987l7.077,-7.013Z"></path>
</symbol><symbol viewBox="0 0 64 64" id="zixfont-circleCross">
  <path d="M32,0c17.661,0 32,14.339 32,32c-0,17.661 -14.339,32 -32,32c-17.661,0 -32,-14.339 -32,-32c-0,-17.661 14.339,-32 32,-32Zm-18,18.001l13.999,13.999l-13.999,13.999l4.001,4.001l13.999,-13.999l13.999,13.999l4.001,-4.001l-13.999,-13.999l13.999,-13.999l-4.001,-4.001l-13.999,13.999l-13.999,-13.999l-4.001,4.001Z"></path>
</symbol><symbol viewBox="0 0 64 64" id="zixfont-clock">
  <path d="M32,0.02c4.155,-0 8.194,0.79 12.118,2.37c3.924,1.581 7.413,3.915 10.467,7.005c4.119,4.084 6.898,8.869 8.336,14.355c1.439,5.487 1.439,10.973 0,16.46c-1.438,5.486 -4.208,10.28 -8.309,14.382c-4.102,4.101 -8.896,6.871 -14.382,8.309c-5.487,1.439 -10.973,1.439 -16.46,0c-5.486,-1.438 -10.28,-4.208 -14.382,-8.309c-4.101,-4.102 -6.871,-8.896 -8.309,-14.382c-1.439,-5.487 -1.439,-10.973 -0,-16.46c1.438,-5.486 4.217,-10.271 8.336,-14.355c3.054,-3.09 6.543,-5.424 10.467,-7.005c3.924,-1.58 7.963,-2.37 12.118,-2.37Zm-0,8.363c-3.089,-0 -6.081,0.586 -8.975,1.758c-2.895,1.172 -5.46,2.894 -7.697,5.167c-3.054,3.018 -5.114,6.551 -6.179,10.6c-1.066,4.048 -1.066,8.096 -0,12.144c1.065,4.049 3.116,7.591 6.152,10.627c3.036,3.036 6.578,5.087 10.627,6.152c4.048,1.066 8.096,1.066 12.144,0c4.049,-1.065 7.582,-3.125 10.6,-6.178c1.847,-1.812 3.339,-3.845 4.475,-6.1c1.136,-2.254 1.873,-4.58 2.21,-6.977c0.338,-2.397 0.338,-4.794 0,-7.191c-0.337,-2.397 -1.074,-4.723 -2.21,-6.978c-1.136,-2.255 -2.628,-4.288 -4.475,-6.099c-1.491,-1.527 -3.16,-2.815 -5.007,-3.862c-1.846,-1.048 -3.746,-1.82 -5.699,-2.317c-1.953,-0.498 -3.942,-0.746 -5.966,-0.746Zm0.936,19.747c1.757,0.422 3.064,2.005 3.064,3.89c-0,2.208 -1.792,4 -4,4c-0.742,-0 -1.436,-0.202 -2.032,-0.555l-14.353,8.287l-2,-3.464l14.385,-8.305c0.017,-1.823 1.255,-3.356 2.936,-3.82l-0,-16.163l2,0l-0,16.13Z"></path>
</symbol><symbol viewBox="0 0 64 64" id="zixfont-copy">
  <path d="M14,54l-14,0l0,-54l54,-0l0,13l10,0l0,51l-50,0l0,-10Zm32.83,-41l-0,-5.8l-39.66,0l0,39.6l6.83,-0l0,-33.8l32.83,0Zm10,44l-0,-36.8l-35.66,0l0,36.8l35.66,0Z"></path>
</symbol><symbol viewBox="0 0 64 64" id="zixfont-cross">
  <path d="M0.189,7.26l7.071,-7.071l24.74,24.74l24.74,-24.74l7.071,7.071l-24.74,24.74l24.74,24.74l-7.071,7.071l-24.74,-24.74l-24.74,24.74l-7.071,-7.071l24.74,-24.74l-24.74,-24.74Z"></path>
</symbol><symbol viewBox="0 0 64 64" id="zixfont-documents">
  <path d="M59.383,13.568c0.731,0.668 1.356,1.576 1.875,2.718c0.526,1.141 0.782,2.191 0.782,3.139l-0,41.15c-0,0.948 -0.363,1.758 -1.094,2.426c-0.732,0.668 -1.613,0.999 -2.657,0.999l-52.578,0c-1.038,0 -1.925,-0.331 -2.657,-0.999c-0.731,-0.668 -1.094,-1.478 -1.094,-2.426l0,-57.15c0,-0.948 0.363,-1.758 1.094,-2.426c0.732,-0.668 1.619,-0.999 2.657,-0.999l35.054,0c1.044,0 2.188,0.234 3.439,0.714c1.256,0.473 2.244,1.044 2.975,1.712l12.204,11.142Zm-17.368,-8.71l0,13.425l14.711,0c-0.263,-0.69 -0.55,-1.176 -0.863,-1.461l-12.247,-11.182c-0.313,-0.286 -0.844,-0.548 -1.601,-0.782Zm15.023,54.57l0,-36.572l-16.273,-0c-1.044,-0 -1.932,-0.332 -2.663,-0.999c-0.732,-0.668 -1.094,-1.479 -1.094,-2.432l-0,-14.853l-30.04,0l-0,54.856l50.07,-0Zm-40.061,-30.859c-0,-0.331 0.119,-0.605 0.356,-0.822c0.232,-0.211 0.532,-0.319 0.901,-0.319l27.539,-0c0.362,-0 0.662,0.108 0.894,0.319c0.237,0.217 0.356,0.491 0.356,0.822l0,2.289c0,0.331 -0.119,0.605 -0.356,0.822c-0.232,0.212 -0.532,0.32 -0.894,0.32l-27.539,0c-0.369,0 -0.669,-0.108 -0.901,-0.32c-0.237,-0.217 -0.356,-0.491 -0.356,-0.822l-0,-2.289Zm28.796,8.003c0.362,0 0.662,0.109 0.894,0.32c0.237,0.217 0.356,0.491 0.356,0.822l0,2.289c0,0.331 -0.119,0.605 -0.356,0.822c-0.232,0.211 -0.532,0.319 -0.894,0.319l-27.539,0c-0.369,0 -0.669,-0.108 -0.901,-0.319c-0.237,-0.217 -0.356,-0.491 -0.356,-0.822l-0,-2.289c-0,-0.331 0.119,-0.605 0.356,-0.822c0.232,-0.211 0.532,-0.32 0.901,-0.32l27.539,0Zm-0,9.145c0.362,-0 0.662,0.103 0.894,0.319c0.237,0.217 0.356,0.491 0.356,0.822l0,2.284c0,0.336 -0.119,0.61 -0.356,0.821c-0.232,0.217 -0.532,0.326 -0.894,0.326l-27.539,-0c-0.369,-0 -0.669,-0.109 -0.901,-0.326c-0.237,-0.211 -0.356,-0.485 -0.356,-0.821l-0,-2.284c-0,-0.331 0.119,-0.605 0.356,-0.822c0.232,-0.216 0.532,-0.319 0.901,-0.319l27.539,-0Z"></path>
</symbol><symbol viewBox="0 0 64 64" id="zixfont-dots">
  <path d="M27.2,56.053c0,2.205 -0.773,4.08 -2.32,5.627c-1.547,1.547 -3.422,2.32 -5.627,2.32c-2.204,-0 -4.08,-0.773 -5.626,-2.32c-1.547,-1.547 -2.32,-3.422 -2.32,-5.627c-0,-1.422 0.355,-2.746 1.066,-3.973c0.711,-1.227 1.68,-2.196 2.907,-2.907c1.227,-0.711 2.551,-1.066 3.973,-1.066c2.205,-0 4.08,0.773 5.627,2.32c1.547,1.546 2.32,3.422 2.32,5.626Zm0,-24.053c0,1.067 -0.204,2.098 -0.613,3.093c-0.409,0.996 -0.969,1.84 -1.68,2.534c-0.711,0.693 -1.556,1.253 -2.534,1.68c-0.977,0.426 -2.017,0.64 -3.12,0.64c-2.204,-0 -4.08,-0.774 -5.626,-2.32c-1.547,-1.547 -2.32,-3.423 -2.32,-5.627c-0,-2.204 0.773,-4.08 2.32,-5.627c1.546,-1.546 3.422,-2.32 5.626,-2.32c1.458,0 2.791,0.356 4,1.067c1.209,0.711 2.169,1.68 2.88,2.907c0.711,1.226 1.067,2.551 1.067,3.973Zm0,-24.053c0,2.204 -0.773,4.08 -2.32,5.626c-1.547,1.547 -3.422,2.32 -5.627,2.32c-2.204,0 -4.08,-0.773 -5.626,-2.32c-1.547,-1.546 -2.32,-3.422 -2.32,-5.626c-0,-2.205 0.773,-4.08 2.32,-5.627c1.546,-1.547 3.422,-2.32 5.626,-2.32c2.205,-0 4.08,0.773 5.627,2.32c1.547,1.547 2.32,3.422 2.32,5.627Zm25.493,48.106c0,2.205 -0.773,4.08 -2.32,5.627c-1.546,1.547 -3.422,2.32 -5.626,2.32c-2.205,-0 -4.08,-0.773 -5.627,-2.32c-1.547,-1.547 -2.32,-3.422 -2.32,-5.627c0,-2.204 0.773,-4.08 2.32,-5.626c1.547,-1.547 3.422,-2.32 5.627,-2.32c2.204,-0 4.08,0.773 5.626,2.32c1.547,1.546 2.32,3.422 2.32,5.626Zm0,-24.053c0,2.204 -0.773,4.08 -2.32,5.627c-1.546,1.546 -3.422,2.32 -5.626,2.32c-2.205,-0 -4.08,-0.774 -5.627,-2.32c-1.547,-1.547 -2.32,-3.423 -2.32,-5.627c0,-2.204 0.773,-4.08 2.32,-5.627c1.547,-1.546 3.422,-2.32 5.627,-2.32c2.204,0 4.08,0.774 5.626,2.32c1.547,1.547 2.32,3.423 2.32,5.627Zm0,-24.053c0,2.204 -0.773,4.08 -2.32,5.626c-1.546,1.547 -3.422,2.32 -5.626,2.32c-2.205,0 -4.08,-0.773 -5.627,-2.32c-1.547,-1.546 -2.32,-3.422 -2.32,-5.626c0,-2.205 0.773,-4.08 2.32,-5.627c1.547,-1.547 3.422,-2.32 5.627,-2.32c1.422,-0 2.746,0.356 3.973,1.067c1.227,0.711 2.196,1.68 2.907,2.906c0.711,1.227 1.066,2.551 1.066,3.974Z"></path>
</symbol><symbol viewBox="0 0 64 64" id="zixfont-download">
  <path d="M64,41.512l-10,-0l-0,12.488l-44,0l-0,-12.488l-10,-0l-0,20.894c-0,0.944 0.72,1.594 1.6,1.594l60.8,-0c0.88,-0 1.6,-0.65 1.6,-1.594l-0,-20.894Zm-37,-41.512l10,0l-0,19.74l13.286,-0l-18.286,24.52l-18.286,-24.52l13.286,-0l-0,-19.74Z"></path>
</symbol><symbol viewBox="0 0 64 64" id="zixfont-edit">
  <path d="M0,0l64,0l0,64l-64,0l0,-64Zm10,10l0,44l44,0l0,-44l-44,0Z"></path>
</symbol><symbol viewBox="0 0 64 64" id="zixfont-excel">
  <path d="M36,53.998l0,8c0,0.592 -0.264,1.16 -0.724,1.54c-0.36,0.3 -0.816,0.46 -1.276,0.46c-0.12,-0 -0.248,-0.012 -0.368,-0.036l-32,-8c-0.948,-0.176 -1.632,-1.173 -1.632,-2.133l0,-43.518c-0.013,-1.558 0.346,-1.918 1.632,-2.277l32,-8c0.584,-0.108 1.188,0.048 1.644,0.424c0.46,0.38 0.724,0.944 0.724,1.54l0,8l26,-0c1.104,-0 2,0.896 2,2l0,40c0,1.104 -0.896,2 -2,2l-26,-0Zm-4,5.588l0,-55.176l-28,7.248l0,40.68l28,7.248Zm4,-9.588l24,-0l0,-36l-24,-0l0,4l6,-0c1.104,-0 2,0.896 2,2c0,1.104 -0.896,2 -2,2l-6,-0l0,4l6,-0c1.104,-0 2,0.896 2,2c0,1.104 -0.896,2 -2,2l-6,-0l0,4l6,-0c1.104,-0 2,0.896 2,2c0,1.104 -0.896,2 -2,2l-6,-0l0,4l6,-0c1.104,-0 2,0.896 2,2c0,1.104 -0.896,2 -2,2l-6,-0l0,4Zm18,-8c1.104,-0 2,0.896 2,2c0,1.104 -0.896,2 -2,2l-4,-0c-1.104,-0 -2,-0.896 -2,-2c0,-1.104 0.896,-2 2,-2l4,-0Zm0,-24c1.104,-0 2,0.896 2,2c0,1.104 -0.896,2 -2,2l-4,-0c-1.104,-0 -2,-0.896 -2,-2c0,-1.104 0.896,-2 2,-2l4,-0Zm0,8c1.104,-0 2,0.896 2,2c0,1.104 -0.896,2 -2,2l-4,-0c-1.104,-0 -2,-0.896 -2,-2c0,-1.104 0.896,-2 2,-2l4,-0Zm0,8c1.104,-0 2,0.896 2,2c0,1.104 -0.896,2 -2,2l-4,-0c-1.104,-0 -2,-0.896 -2,-2c0,-1.104 0.896,-2 2,-2l4,-0Zm-35.32,0.669l-5.104,6.563c-0.392,0.504 -0.984,0.768 -1.576,0.768c-0.428,-0 -0.86,-0.136 -1.228,-0.42c-0.872,-0.676 -1.028,-1.936 -0.352,-2.808l5.576,-7.17l-5.5,-6.286c-0.728,-0.828 -0.644,-2.092 0.188,-2.82c0.828,-0.728 2.088,-0.648 2.824,0.188l4.99,5.702l5.922,-7.614c0.68,-0.868 1.936,-1.032 2.808,-0.348c0.872,0.676 1.028,1.932 0.348,2.808l-6.395,8.221l6.327,7.231c0.728,0.832 0.644,2.092 -0.188,2.82c-0.384,0.332 -0.852,0.496 -1.32,0.496c-0.556,-0 -1.108,-0.232 -1.504,-0.684l-5.816,-6.647Z"></path>
</symbol><symbol viewBox="0 0 64 64" id="zixfont-female">
  <path d="M24.51,13.385c1.692,-1.494 4.105,-2.58 7.547,-2.608c6.571,0.055 9.675,3.922 11.121,7.135c0.806,1.794 1.152,3.748 1.281,5.71c0.468,7.07 4.068,13.536 5.745,16.299c0.569,0.937 0.294,2.185 -0.647,2.748c-1.537,0.92 -3.419,0.594 -3.431,0.591l-7.223,0c-0.706,0.001 -1.017,0.987 -0.463,1.424c0.452,0.356 0.883,0.678 1.116,0.805l8.437,5.106c0.046,0.025 0.091,0.05 0.135,0.076c5.396,2.138 13.889,5.568 14.794,6.471c1.213,1.213 1.073,6.858 1.073,6.858l-63.99,0c-0,0 -0.138,-5.645 1.075,-6.858c0.875,-0.873 8.869,-4.118 14.273,-6.265c0.134,-0.079 0.271,-0.154 0.412,-0.224l10.144,-4.35c0.55,-0.275 0.998,-1.164 1.313,-1.797c0.284,-0.572 -0.141,-1.246 -0.78,-1.246l-7.174,0c0,0 -2.594,-0.253 -4.594,-1.113c-1.172,-0.503 -1.575,-1.167 -0.843,-2.21c2.143,-3.051 6.573,-10.233 6.716,-17.65c0,0 0.112,-5.206 3.653,-8.615c0.017,-0.162 0.124,-0.25 0.31,-0.287Z"></path>
</symbol><symbol viewBox="0 0 64 64" id="zixfont-funnel">
  <path d="M-0,0l64,0l-27,32.187l-0,21.813l-10,10l-0,-31.813l-27,-32.187Z"></path>
</symbol><symbol viewBox="0 0 64 64" id="zixfont-funnelStroke">
  <path d="M40.478,28.041l23.929,6.412l-2.588,9.659l-24.819,-6.65l-0,16.538l-10,10l-0,-29.218l-27,-7.235l2.588,-9.659l16.018,4.292l-18.606,-22.18l64,0l-23.522,28.041Z"></path>
</symbol><symbol viewBox="0 0 64 64" id="zixfont-gear">
  <path d="M64,27.458l-0,9.25c-0,0.333 -0.107,0.653 -0.333,0.959c-0.22,0.307 -0.499,0.487 -0.832,0.54l-7.706,1.165c-0.533,1.505 -1.072,2.771 -1.625,3.796c0.973,1.386 2.458,3.304 4.456,5.748c0.279,0.333 0.419,0.679 0.419,1.045c0,0.36 -0.126,0.68 -0.379,0.959c-0.746,1.026 -2.125,2.524 -4.123,4.496c-1.998,1.978 -3.303,2.963 -3.916,2.963c-0.333,0 -0.692,-0.126 -1.085,-0.379l-5.748,-4.496c-1.225,0.64 -2.49,1.166 -3.796,1.579c-0.439,3.782 -0.845,6.366 -1.205,7.752c-0.193,0.779 -0.693,1.165 -1.498,1.165l-9.251,-0c-0.393,-0 -0.732,-0.113 -1.025,-0.353c-0.293,-0.233 -0.453,-0.533 -0.48,-0.892l-1.165,-7.672c-1.359,-0.44 -2.611,-0.959 -3.75,-1.539l-5.874,4.456c-0.279,0.253 -0.626,0.379 -1.045,0.379c-0.387,0 -0.733,-0.153 -1.039,-0.459c-3.503,-3.17 -5.794,-5.501 -6.88,-7c-0.193,-0.279 -0.286,-0.599 -0.286,-0.959c-0,-0.333 0.106,-0.652 0.333,-0.959c0.413,-0.586 1.125,-1.505 2.124,-2.77c0.999,-1.266 1.752,-2.244 2.251,-2.937c-0.752,-1.392 -1.318,-2.764 -1.711,-4.129l-7.626,-1.126c-0.359,-0.053 -0.652,-0.226 -0.872,-0.519c-0.226,-0.293 -0.333,-0.619 -0.333,-0.979l-0,-9.25c-0,-0.333 0.107,-0.653 0.333,-0.959c0.22,-0.307 0.486,-0.487 0.793,-0.54l7.745,-1.172c0.393,-1.272 0.932,-2.551 1.625,-3.829c-1.106,-1.585 -2.598,-3.503 -4.456,-5.754c-0.279,-0.333 -0.419,-0.666 -0.419,-0.999c-0,-0.273 0.126,-0.593 0.379,-0.959c0.72,-0.999 2.092,-2.491 4.103,-4.476c2.011,-1.991 3.33,-2.983 3.936,-2.983c0.366,-0 0.726,0.14 1.085,0.419l5.748,4.456c1.225,-0.64 2.49,-1.166 3.796,-1.579c0.446,-3.782 0.845,-6.366 1.205,-7.752c0.2,-0.779 0.699,-1.165 1.505,-1.165l9.251,-0c0.386,-0 0.725,0.113 1.018,0.353c0.293,0.233 0.453,0.533 0.48,0.892l1.165,7.672c1.366,0.44 2.611,0.959 3.75,1.539l5.92,-4.456c0.247,-0.253 0.58,-0.379 0.999,-0.379c0.36,-0 0.706,0.14 1.039,0.419c3.583,3.304 5.874,5.668 6.88,7.086c0.193,0.22 0.286,0.526 0.286,0.913c0,0.333 -0.106,0.652 -0.333,0.959c-0.413,0.586 -1.119,1.505 -2.124,2.77c-0.999,1.266 -1.752,2.245 -2.251,2.937c0.726,1.392 1.292,2.751 1.711,4.083l7.626,1.172c0.359,0.053 0.652,0.226 0.872,0.519c0.226,0.293 0.333,0.619 0.333,0.979Zm-32,-12.742c-9.54,-0 -17.284,7.744 -17.284,17.284c-0,9.54 7.744,17.284 17.284,17.284c9.54,0 17.284,-7.744 17.284,-17.284c0,-9.54 -7.744,-17.284 -17.284,-17.284Z"></path>
</symbol><symbol viewBox="0 0 64 64" id="zixfont-groups">
  <path d="M12,40l-12,-0l0,-40l40,-0l-0,12l12,0l-0,12l12,0l-0,40l-40,0l0,-12l-12,0l-0,-12Zm35.625,-23.625l-31.25,0l-0,31.25l7.625,0l0,-23.625l23.625,0l-0,-7.625Zm-19.25,12l0,31.25l31.25,0l-0,-31.25l-31.25,0Zm-16.375,-16.375l23.625,0l-0,-7.625l-31.25,-0l-0,31.25l7.625,-0l-0,-23.625Z"></path>
</symbol><symbol viewBox="0 0 64 64" id="zixfont-image">
  <path d="M0,5.28l64,0l0,53.44l-64,0l0,-53.44Zm4.907,5.013l0,43.414l54.186,0l0,-43.414l-54.186,0Zm11.146,6.24c1.458,0 2.711,0.525 3.76,1.574c1.049,1.049 1.574,2.337 1.574,3.866c-0,1.458 -0.525,2.711 -1.574,3.76c-1.049,1.049 -2.302,1.574 -3.76,1.574c-1.529,0 -2.809,-0.525 -3.84,-1.574c-1.031,-1.049 -1.546,-2.302 -1.546,-3.76c0,-1.529 0.515,-2.817 1.546,-3.866c1.031,-1.049 2.311,-1.574 3.84,-1.574Zm23.04,2.667l14.24,14.72l0,14.667l-42.666,0l0,-3.68l9.6,-12.48l6.56,5.44l12.266,-18.667Z"></path>
</symbol><symbol viewBox="0 0 64 64" id="zixfont-indent">
  <path d="M64,51l-64,0l0,5l64,0l0,-5Zm0,-10.75l-40,0l0,5l40,0l0,-5Zm-44,-8.25l-20,13.25l0,-26.5l20,13.25Zm44,-2.5l-40,0l0,5l40,0l0,-5Zm0,-10.75l-40,0l0,5l40,0l0,-5Zm0,-10.75l-64,0l0,5l64,0l0,-5Z"></path>
</symbol><symbol viewBox="0 0 64 64" id="zixfont-info">
  <path d="M32,-0c5.796,-0 11.147,1.431 16.053,4.293c4.907,2.863 8.791,6.747 11.654,11.654c2.862,4.906 4.293,10.257 4.293,16.053c0,5.796 -1.431,11.147 -4.293,16.053c-2.863,4.907 -6.747,8.791 -11.654,11.654c-4.906,2.862 -10.257,4.293 -16.053,4.293c-5.796,0 -11.147,-1.431 -16.053,-4.293c-4.907,-2.863 -8.791,-6.747 -11.654,-11.654c-2.862,-4.906 -4.293,-10.257 -4.293,-16.053c0,-5.796 1.431,-11.147 4.293,-16.053c2.863,-4.907 6.747,-8.791 11.654,-11.654c4.906,-2.862 10.257,-4.293 16.053,-4.293Zm-1.013,10.987c-1.458,-0 -2.649,0.391 -3.574,1.173c-0.889,0.818 -1.333,1.876 -1.333,3.173c-0,1.298 0.444,2.338 1.333,3.12c0.925,0.783 2.116,1.174 3.574,1.174c1.457,-0 2.649,-0.391 3.573,-1.174c0.924,-0.782 1.387,-1.822 1.387,-3.12c-0,-1.297 -0.463,-2.346 -1.387,-3.146c-0.924,-0.8 -2.116,-1.2 -3.573,-1.2Zm4.586,14.026c-1.351,0 -3.253,0.294 -5.706,0.88c-2.454,0.587 -4.445,1.183 -5.974,1.787l0.48,2.507l2.24,-0.427c1.103,-0 1.654,0.729 1.654,2.187l-0,15.733c-0,0.853 -0.303,1.458 -0.907,1.813c-0.711,0.498 -1.831,0.925 -3.36,1.28l0.533,2.24c3.52,-0.355 6.027,-0.533 7.52,-0.533c1.494,0 4.036,0.178 7.627,0.533l0.427,-2.24c-1.458,-0.426 -2.56,-0.871 -3.307,-1.333c-0.427,-0.213 -0.711,-0.427 -0.853,-0.64c-0.071,-0.213 -0.107,-0.587 -0.107,-1.12l0,-15.413c0,-2.134 0.338,-4.071 1.013,-5.814l-1.28,-1.44Z"></path>
</symbol><symbol viewBox="0 0 64 64" id="zixfont-italic">
  <path d="M36.118,49.909l-0.324,1.091l-16.461,0l0.413,-1.091c1.652,-0.04 2.744,-0.177 3.275,-0.413c0.865,-0.335 1.504,-0.797 1.917,-1.387c0.649,-0.924 1.318,-2.576 2.006,-4.956l6.962,-24.129c0.59,-2.006 0.885,-3.521 0.885,-4.543c0,-0.511 -0.128,-0.944 -0.384,-1.298c-0.256,-0.354 -0.644,-0.624 -1.165,-0.811c-0.521,-0.187 -1.539,-0.281 -3.053,-0.281l0.354,-1.091l15.457,0l-0.324,1.091c-1.259,-0.019 -2.193,0.118 -2.803,0.413c-0.885,0.394 -1.558,0.954 -2.02,1.682c-0.463,0.727 -1.058,2.34 -1.785,4.838l-6.932,24.129c-0.63,2.223 -0.944,3.639 -0.944,4.248c0,0.492 0.123,0.91 0.368,1.254c0.246,0.344 0.64,0.61 1.18,0.796c0.541,0.187 1.667,0.34 3.378,0.458Z"></path>
</symbol><symbol viewBox="0 0 64 64" id="zixfont-justifyFull">
  <path d="M64,51l-64,0l0,5l64,0l0,-5Zm0,-10.75l-64,0l0,5l64,0l0,-5Zm0,-10.75l-64,0l0,5l64,0l0,-5Zm0,-10.75l-64,0l0,5l64,0l0,-5Zm0,-10.75l-64,0l0,5l64,0l0,-5Z"></path>
</symbol><symbol viewBox="0 0 64 64" id="zixfont-link">
  <path d="M33.564,38.893l-6.587,6.589c0.144,2.728 -0.792,5.499 -2.875,7.589c-3.906,3.891 -10.232,3.891 -14.139,-0.005c-3.896,-3.907 -3.893,-10.229 -0.002,-14.136c2.088,-2.083 4.864,-3.016 7.592,-2.875l6.584,-6.584c-6.568,-2.819 -14.467,-1.563 -19.835,3.803c-7.024,7.032 -7.029,18.419 0,25.453c7.035,7.033 18.424,7.027 25.454,0l0.002,0.006c5.36,-5.371 6.622,-13.272 3.806,-19.84Zm-5.062,-13.787l6.579,-6.584c-0.141,-2.728 0.792,-5.499 2.875,-7.595c3.912,-3.891 10.232,-3.896 14.141,0.005c3.899,3.907 3.899,10.232 0,14.136c-2.088,2.088 -4.858,3.019 -7.589,2.878l-6.584,6.581c6.568,2.819 14.464,1.557 19.835,-3.797c7.024,-7.038 7.021,-18.427 0,-25.457c-7.038,-7.029 -18.427,-7.032 -25.454,-0.002c-5.363,5.365 -6.621,13.264 -3.803,19.835Zm9.6,-5.835l-19.797,19.803c-1.56,1.557 -1.565,4.093 0,5.656c1.56,1.557 4.096,1.557 5.656,-0.005l19.8,-19.798c1.558,-1.563 1.558,-4.093 0,-5.656c-1.565,-1.563 -4.101,-1.56 -5.659,0Z"></path>
</symbol><symbol viewBox="0 0 64 64" id="zixfont-lock">
  <path d="M51.699,32l-0,-12.301c-0,-10.863 -8.836,-19.699 -19.699,-19.699c-10.863,-0 -19.699,8.836 -19.699,19.699l0,12.301l-4.301,-0l0,32l48,-0l0,-32l-4.301,-0Zm-31.629,-12.301c-0,-6.579 5.351,-11.93 11.93,-11.93c6.579,-0 11.93,5.351 11.93,11.93l0,12.301l-23.86,-0l-0,-12.301Zm16.973,36.301l-10.088,0l2.712,-7.821c-1.736,-0.864 -2.939,-2.637 -2.939,-4.704c0,-2.912 2.36,-5.271 5.272,-5.271c2.912,-0 5.272,2.357 5.272,5.271c-0,2.069 -1.203,3.84 -2.939,4.704l2.71,7.821Z"></path>
</symbol><symbol viewBox="0 0 64 64" id="zixfont-lowercase">
  <path d="M54.114,35.522l2.69,0.35c-0.294,1.854 -1.047,3.305 -2.257,4.354c-1.211,1.049 -2.698,1.573 -4.461,1.573c-2.209,0 -3.985,-0.722 -5.327,-2.166c-1.343,-1.443 -2.014,-3.513 -2.014,-6.208c-0,-1.743 0.289,-3.268 0.866,-4.575c0.578,-1.307 1.457,-2.287 2.637,-2.941c1.181,-0.653 2.465,-0.98 3.853,-0.98c1.753,0 3.187,0.443 4.301,1.33c1.115,0.886 1.829,2.145 2.143,3.777l-2.659,0.41c-0.254,-1.084 -0.702,-1.9 -1.346,-2.447c-0.643,-0.547 -1.421,-0.821 -2.332,-0.821c-1.378,0 -2.498,0.494 -3.359,1.482c-0.862,0.988 -1.292,2.551 -1.292,4.689c0,2.168 0.415,3.744 1.246,4.727c0.831,0.982 1.915,1.474 3.253,1.474c1.074,0 1.97,-0.33 2.69,-0.988c0.719,-0.659 1.175,-1.672 1.368,-3.04Zm-25.321,5.912l-2.538,-0l-0,-22.28l2.736,-0l-0,7.948c1.155,-1.449 2.629,-2.173 4.422,-2.173c0.993,-0 1.933,0.2 2.82,0.6c0.886,0.401 1.616,0.963 2.188,1.687c0.573,0.725 1.021,1.599 1.345,2.622c0.325,1.023 0.487,2.118 0.487,3.283c-0,2.766 -0.684,4.904 -2.052,6.414c-1.368,1.509 -3.009,2.264 -4.924,2.264c-1.905,-0 -3.4,-0.795 -4.484,-2.386l-0,2.021Zm-9.301,-1.991c-1.013,0.862 -1.989,1.47 -2.926,1.824c-0.937,0.355 -1.943,0.532 -3.017,0.532c-1.773,-0 -3.136,-0.433 -4.088,-1.299c-0.952,-0.867 -1.429,-1.974 -1.429,-3.321c-0,-0.79 0.18,-1.512 0.54,-2.166c0.36,-0.653 0.831,-1.178 1.413,-1.573c0.583,-0.395 1.239,-0.694 1.968,-0.897c0.537,-0.142 1.348,-0.278 2.432,-0.41c2.209,-0.263 3.835,-0.578 4.879,-0.942c0.01,-0.375 0.015,-0.613 0.015,-0.715c-0,-1.114 -0.258,-1.899 -0.775,-2.355c-0.699,-0.618 -1.738,-0.927 -3.116,-0.927c-1.287,-0 -2.236,0.225 -2.849,0.676c-0.613,0.451 -1.067,1.249 -1.361,2.394l-2.675,-0.365c0.244,-1.145 0.644,-2.07 1.201,-2.774c0.557,-0.704 1.363,-1.246 2.417,-1.626c1.053,-0.38 2.274,-0.57 3.662,-0.57c1.378,-0 2.498,0.162 3.359,0.486c0.861,0.325 1.495,0.732 1.9,1.224c0.405,0.491 0.689,1.112 0.851,1.862c0.091,0.466 0.137,1.307 0.137,2.523l-0,3.647c-0,2.543 0.058,4.152 0.175,4.826c0.116,0.673 0.347,1.319 0.691,1.937l-2.857,-0c-0.284,-0.567 -0.466,-1.231 -0.547,-1.991Zm-0.228,-6.109c-0.993,0.405 -2.483,0.749 -4.468,1.033c-1.125,0.162 -1.921,0.345 -2.387,0.547c-0.466,0.203 -0.825,0.499 -1.079,0.889c-0.253,0.39 -0.38,0.824 -0.38,1.3c-0,0.729 0.276,1.337 0.829,1.824c0.552,0.486 1.36,0.729 2.424,0.729c1.054,-0 1.991,-0.23 2.811,-0.691c0.821,-0.461 1.424,-1.092 1.809,-1.893c0.294,-0.618 0.441,-1.53 0.441,-2.735l0,-1.003Zm9.499,-0.092c0,1.936 0.263,3.334 0.79,4.195c0.861,1.409 2.027,2.113 3.496,2.113c1.195,-0 2.229,-0.52 3.1,-1.558c0.872,-1.039 1.307,-2.586 1.307,-4.643c0,-2.108 -0.418,-3.663 -1.254,-4.666c-0.836,-1.003 -1.846,-1.505 -3.032,-1.505c-1.195,-0 -2.229,0.52 -3.1,1.558c-0.872,1.039 -1.307,2.541 -1.307,4.506Z"></path>
</symbol><symbol viewBox="0 0 64 64" id="zixfont-mail">
  <path d="M0,8l64,0l0,8.934l-32,18.079l-32,-18.079l0,-8.934Zm0,14.643l16.32,9.198l-16.32,16.97l0,-26.168Zm64,-0l0,26.168l-16.32,-16.97l16.32,-9.198Zm-43.2,11.736l11.2,6.343l11.2,-6.343l20.8,21.621l-64,-0l20.8,-21.621Z"></path>
</symbol><symbol viewBox="0 0 64 64" id="zixfont-male">
  <path d="M43.426,29.045c-0,-0 2.016,-8.335 -0,-11.159c-2.019,-2.823 -2.824,-4.704 -7.262,-6.05c-4.438,-1.347 -2.821,-1.079 -6.048,-0.941c-3.228,0.136 -5.918,1.881 -5.918,2.821c-0,0 -2.016,0.136 -2.821,0.943c-0.808,0.807 -2.152,4.569 -2.152,5.512c0,0.942 0.672,7.261 1.344,8.605l-0.8,0.269c-0.672,7.796 2.688,8.739 2.688,8.739c1.209,7.261 2.42,4.17 2.42,6.05c0,1.881 -1.211,1.211 -1.211,1.211c-0,0 -1.073,2.957 -3.762,4.033c-2.688,1.073 -17.61,6.853 -18.824,8.064c-1.213,1.213 -1.075,6.858 -1.075,6.858l63.99,-0c0,-0 0.14,-5.645 -1.073,-6.858c-1.216,-1.214 -16.139,-6.991 -18.827,-8.064c-2.688,-1.076 -3.761,-4.033 -3.761,-4.033c-0,0 -1.211,0.67 -1.211,-1.211c-0,-1.88 1.211,1.211 2.422,-6.05c-0,-0 3.358,-0.943 2.688,-8.739l-0.807,-0Z"></path>
</symbol><symbol viewBox="0 0 64 64" id="zixfont-maximize">
  <path d="M10,46.921l-0,-18.176l-9.962,-0.045l-0.038,25.284l0.038,9.97l9.962,0.046l25.293,-0.046l-0.038,-9.97l-18.182,0.007l15.755,-15.756l-7.071,-7.071l-15.757,15.757Zm44,-29.842l0,18.176l9.962,0.045l0.038,-25.284l-0.038,-9.97l-9.962,-0.046l-25.293,0.046l0.038,9.97l18.182,-0.007l-15.755,15.756l7.071,7.071l15.757,-15.757Z"></path>
</symbol><symbol viewBox="0 0 64 64" id="zixfont-menu">
  <path d="M0,54l64,0l0,10l-64,0l0,-10Zm0,-27l64,-0l0,10l-64,-0l0,-10Zm0,-27l64,0l0,10l-64,0l0,-10Z"></path>
</symbol><symbol viewBox="0 0 64 64" id="zixfont-minus">
  <path d="M0,27l64,0l-0,10l-64,0l0,-10Z"></path>
</symbol><symbol viewBox="0 0 64 64" id="zixfont-move">
  <path d="M0,32l10.933,-10.933l0.054,7.626l17.706,0l0,-17.706l-7.733,0.053l11.04,-11.04l10.933,10.933l-7.626,0.054l-0,17.706l17.706,0l-0.053,-7.733l11.04,11.04l-10.933,10.933l-0.054,-7.626l-17.706,-0l-0,17.706l7.733,-0.053l-11.04,11.04l-10.933,-10.933l7.626,-0.054l0,-17.706l-17.706,-0l0.053,7.733l-11.04,-11.04Z"></path>
</symbol><symbol viewBox="0 0 64 64" id="zixfont-open">
  <path d="M13.28,-0l13.813,-0l4.48,7.113l21.44,0l0,13.485l-46.4,-0l-6.613,26.692l0,-40.177l8.8,0l4.48,-7.113Zm-13.28,59.211l9.333,-35.913l54.667,-0l-10.987,40.194l-53.013,0l0,-4.281Z"></path>
</symbol><symbol viewBox="0 0 64 64" id="zixfont-orderedList">
  <path d="M0.254,58.576l2.656,-0.322c0.085,0.677 0.313,1.195 0.684,1.553c0.371,0.358 0.82,0.537 1.347,0.537c0.567,0 1.044,-0.215 1.431,-0.645c0.387,-0.429 0.581,-1.009 0.581,-1.738c0,-0.69 -0.185,-1.237 -0.557,-1.641c-0.371,-0.403 -0.823,-0.605 -1.357,-0.605c-0.352,0 -0.771,0.068 -1.26,0.205l0.303,-2.236c0.742,0.019 1.309,-0.142 1.699,-0.484c0.391,-0.342 0.586,-0.796 0.586,-1.362c0,-0.482 -0.143,-0.866 -0.43,-1.152c-0.286,-0.287 -0.667,-0.43 -1.142,-0.43c-0.469,0 -0.869,0.163 -1.201,0.488c-0.332,0.326 -0.534,0.801 -0.606,1.426l-2.529,-0.43c0.176,-0.866 0.441,-1.557 0.796,-2.075c0.355,-0.518 0.849,-0.924 1.484,-1.221c0.635,-0.296 1.346,-0.444 2.134,-0.444c1.348,0 2.428,0.43 3.242,1.289c0.671,0.703 1.006,1.497 1.006,2.383c0,1.256 -0.687,2.259 -2.06,3.008c0.82,0.175 1.476,0.569 1.967,1.181c0.492,0.612 0.738,1.351 0.738,2.217c0,1.257 -0.459,2.328 -1.377,3.213c-0.918,0.885 -2.061,1.328 -3.428,1.328c-1.296,0 -2.37,-0.373 -3.223,-1.118c-0.853,-0.745 -1.347,-1.72 -1.484,-2.925Zm63.746,-4.515l-48.101,0l0,5l48.101,0l0,-5Zm-54.381,-14.235l0,2.549l-9.619,0c0.104,-0.964 0.417,-1.877 0.937,-2.739c0.521,-0.863 1.55,-2.007 3.086,-3.433c1.237,-1.152 1.996,-1.933 2.276,-2.344c0.377,-0.566 0.566,-1.126 0.566,-1.679c0,-0.612 -0.164,-1.083 -0.493,-1.411c-0.329,-0.329 -0.783,-0.494 -1.362,-0.494c-0.573,0 -1.029,0.173 -1.367,0.518c-0.339,0.345 -0.534,0.918 -0.586,1.719l-2.735,-0.274c0.163,-1.51 0.674,-2.594 1.533,-3.252c0.86,-0.657 1.934,-0.986 3.223,-0.986c1.413,0 2.523,0.381 3.33,1.143c0.807,0.761 1.211,1.709 1.211,2.841c0,0.645 -0.115,1.259 -0.347,1.841c-0.231,0.583 -0.597,1.193 -1.098,1.831c-0.332,0.423 -0.931,1.032 -1.797,1.826c-0.866,0.795 -1.414,1.322 -1.646,1.582c-0.231,0.261 -0.418,0.515 -0.561,0.762l5.449,0Zm54.381,-7.074l-48.101,0l0,5l48.101,0l0,-5Zm-56.627,-10.377l-2.744,0l0,-10.342c-1.003,0.938 -2.184,1.631 -3.545,2.08l0,-2.49c0.716,-0.234 1.494,-0.679 2.334,-1.333c0.84,-0.654 1.416,-1.418 1.728,-2.29l2.227,0l0,14.375Zm56.627,-10.931l-48.101,0l0,5l48.101,0l0,-5Z"></path>
</symbol><symbol viewBox="0 0 64 64" id="zixfont-outdent">
  <path d="M64,51l-64,0l0,5l64,0l0,-5Zm0,-10.75l-40,0l0,5l40,0l0,-5Zm-64,-8.25l20,-13.25l0,26.5l-20,-13.25Zm64,-2.5l-40,0l0,5l40,0l0,-5Zm0,-10.75l-40,0l0,5l40,0l0,-5Zm0,-10.75l-64,0l0,5l64,0l0,-5Z"></path>
</symbol><symbol viewBox="0 0 64 64" id="zixfont-paste">
  <path d="M58.182,5.818l-17.978,0c-1.222,-3.374 -4.422,-5.818 -8.204,-5.818c-3.782,0 -6.982,2.444 -8.204,5.818l-17.978,0c-3.2,0 -5.818,2.618 -5.818,5.818l-0,46.546c-0,3.2 2.618,5.818 5.818,5.818l52.364,0c3.2,0 5.818,-2.618 5.818,-5.818l-0,-46.546c-0,-3.2 -2.618,-5.818 -5.818,-5.818Zm-26.182,0c1.6,0 2.909,1.309 2.909,2.909c0,1.6 -1.309,2.909 -2.909,2.909c-1.6,0 -2.909,-1.309 -2.909,-2.909c-0,-1.6 1.309,-2.909 2.909,-2.909Zm26.182,52.364l-52.364,-0l0,-46.546l9.818,0l0,8.728l32.909,-0l0,-8.728l9.637,0l-0,46.546Z"></path>
</symbol><symbol viewBox="0 0 64 64" id="zixfont-pdf">
  <path d="M39.862,34.886c1.367,1.071 3.115,2.211 5.241,3.451c2.456,-0.296 4.89,-0.434 7.307,-0.434c6.119,0 9.813,1.004 11.06,3.009c0.659,0.904 0.709,1.976 0.12,3.204c-0,0.039 -0.021,0.079 -0.06,0.119c-0.04,0.039 -0.079,0.087 -0.131,0.127l0,0.059c-0.248,1.564 -1.726,2.34 -4.431,2.34c-1.996,0 -4.392,-0.413 -7.178,-1.228c-2.794,-0.826 -5.5,-1.908 -8.125,-3.265c-9.204,0.983 -17.359,2.685 -24.486,5.103c-6.369,10.744 -11.41,16.121 -15.114,16.121c-0.618,0 -1.207,-0.146 -1.747,-0.432l-1.497,-0.737c-0.039,-0.04 -0.17,-0.147 -0.379,-0.305c-0.409,-0.412 -0.539,-1.149 -0.37,-2.222c0.37,-1.641 1.539,-3.508 3.495,-5.623c1.956,-2.112 4.711,-4.089 8.245,-5.937c0.589,-0.374 1.058,-0.245 1.437,0.363c0.08,0.09 0.13,0.167 0.13,0.257c2.157,-3.492 4.392,-7.532 6.678,-12.122c2.835,-5.574 5.002,-10.951 6.499,-16.113c-0.999,-3.362 -1.638,-6.636 -1.907,-9.81c-0.269,-3.185 -0.14,-5.801 0.41,-7.845c0.448,-1.642 1.327,-2.458 2.615,-2.458l1.378,-0c0.957,-0 1.687,0.305 2.185,0.914c0.749,0.867 0.939,2.262 0.559,4.187c-0.079,0.247 -0.159,0.414 -0.249,0.493c0.04,0.117 0.069,0.286 0.069,0.491l-0,1.848c-0.089,5.043 -0.379,8.975 -0.877,11.807c2.285,6.724 5.329,11.6 9.123,14.638Zm-35.987,25.284c2.167,-0.984 5.023,-4.227 8.565,-9.723c-2.125,1.643 -3.952,3.362 -5.469,5.172c-1.518,1.798 -2.546,3.323 -3.096,4.551Zm24.867,-56.595c-0.629,1.721 -0.669,4.434 -0.131,8.121c0.041,-0.286 0.19,-1.19 0.441,-2.704c-0,-0.127 0.149,-1.002 0.438,-2.644c0.041,-0.167 0.12,-0.325 0.25,-0.492c-0.039,-0.04 -0.06,-0.088 -0.06,-0.128c0,-0.039 -0.01,-0.069 -0.039,-0.088c-0.021,-0.02 -0.031,-0.049 -0.031,-0.089c-0.039,-0.904 -0.31,-1.641 -0.809,-2.222c0,0.04 -0.02,0.09 -0.059,0.129l-0,0.117Zm-7.747,40.66c5.621,-2.212 11.531,-3.874 17.739,-4.985c-0.089,-0.038 -0.36,-0.236 -0.809,-0.579c-0.459,-0.344 -0.798,-0.63 -1.007,-0.837c-3.166,-2.742 -5.801,-6.35 -7.926,-10.823c-1.129,3.529 -2.856,7.57 -5.191,12.122c-1.249,2.291 -2.187,4.001 -2.806,5.102Zm40.349,-0.984c-0.999,-0.983 -3.913,-1.474 -8.745,-1.474c3.165,1.15 5.75,1.72 7.746,1.72c0.579,0 0.959,-0.02 1.119,-0.058c-0,-0.04 -0.04,-0.109 -0.12,-0.188Z"></path>
</symbol><symbol viewBox="0 0 64 64" id="zixfont-pencil">
  <path d="M12.417,61.806l-12.417,2.194l2.194,-12.417l10.223,10.223Zm28.928,-49.411l10.26,10.26l-34.389,34.389l-10.26,-10.26l34.389,-34.389Zm4.781,-4.78c-0,-0 3.06,-3.06 5.82,-5.821c2.392,-2.392 6.272,-2.392 8.664,0c1.888,1.888 -0.292,-0.292 1.596,1.596c2.392,2.392 2.392,6.272 -0,8.664c-2.761,2.76 -5.821,5.82 -5.821,5.82l-10.259,-10.259Z"></path>
</symbol><symbol viewBox="0 0 64 64" id="zixfont-place">
  <path d="M32,-0c-10.347,-0 -18.735,8.388 -18.735,18.735c0,10.349 18.735,45.265 18.735,45.265c-0,0 18.735,-34.916 18.735,-45.265c-0,-10.347 -8.386,-18.735 -18.735,-18.735Zm-0,27.687c-4.943,0 -8.953,-4.006 -8.953,-8.952c0,-4.946 4.01,-8.953 8.953,-8.953c4.943,-0 8.953,4.009 8.953,8.953c-0,4.943 -4.01,8.952 -8.953,8.952Z"></path>
</symbol><symbol viewBox="0 0 64 64" id="zixfont-plus">
  <path d="M0,27l27,0l0,-27l10,0l0,27l27,0l0,10l-27,0l0,27l-10,0l0,-27l-27,0l0,-10Z"></path>
</symbol><symbol viewBox="0 0 64 64" id="zixfont-refresh">
  <path d="M62.931,40.236c-3.631,13.685 -16.1,23.764 -30.931,23.764c-9.661,-0 -18.329,-4.305 -24.191,-11.082l-5.729,3.995l-1.944,-22.712l20.641,9.673l-5.403,3.767c4.172,4.439 10.058,7.218 16.629,7.218c10.594,-0.019 19.491,-7.216 22.09,-16.991l8.838,2.368Zm1.069,-8.235l-0,0.051l-0.191,-0.051l0.191,0Zm-62.942,-8.185c3.617,-13.707 16.101,-23.814 30.945,-23.816c9.666,0 18.331,4.313 24.196,11.089l5.727,-3.994l1.949,22.709l-20.641,-9.668l5.402,-3.77c-4.175,-4.438 -10.06,-7.22 -16.633,-7.22c-10.611,0.017 -19.521,7.24 -22.102,17.04l-8.843,-2.37Z"></path>
</symbol><symbol viewBox="0 0 64 64" id="zixfont-search">
  <path d="M46.967,41.311c3.149,-4.301 5.033,-9.584 5.033,-15.311c-0,-14.336 -11.664,-26 -26,-26c-14.336,0 -26,11.664 -26,26c-0,14.336 11.664,26 26,26c5.727,0 11.01,-1.884 15.311,-5.033l17.033,17.033l5.656,-5.656c-0,-0 -17.033,-17.033 -17.033,-17.033Zm-20.967,2.689c-9.926,0 -18,-8.074 -18,-18c0,-9.925 8.074,-18 18,-18c9.926,0 18,8.075 18,18c-0,9.926 -8.074,18 -18,18Z"></path>
</symbol><symbol viewBox="0 0 64 64" id="zixfont-sortArrows">
  <path d="M34.5,9.544l0,19.456l-5,-0l0,-19.454l-9.962,9.966l-3.538,-3.512l12.462,-12.494l3.538,-3.506l3.538,3.512l12.462,12.488l-3.538,3.506l-9.962,-9.962Zm0,44.912l9.962,-9.962l3.538,3.506l-12.462,12.488l-3.538,3.512l-3.538,-3.506l-12.462,-12.494l3.538,-3.512l9.962,9.966l0,-19.454l5,0l0,19.456Z"></path>
</symbol><symbol viewBox="0 0 64 64" id="zixfont-strikethrough">
  <path d="M27.263,27.227c2.1,-2.922 4.366,-4.382 6.798,-4.382c2.226,0 4.168,0.951 5.826,2.854c1.399,1.604 2.207,3.704 2.427,6.301l3.578,0c0.371,-2.355 1.326,-4.34 2.866,-5.958c2.029,-2.132 4.465,-3.197 7.307,-3.197c2.132,0 3.885,0.564 5.258,1.693c1.374,1.129 2.061,2.302 2.061,3.518c0,0.6 -0.193,1.085 -0.58,1.456c-0.387,0.371 -0.928,0.557 -1.623,0.557c-0.931,0 -1.634,-0.3 -2.108,-0.9c-0.268,-0.332 -0.446,-0.963 -0.533,-1.895c-0.087,-0.932 -0.406,-1.642 -0.959,-2.132c-0.553,-0.474 -1.318,-0.71 -2.298,-0.71c-1.579,0 -2.85,0.584 -3.813,1.752c-1.225,1.483 -1.864,3.421 -1.915,5.816l14.445,0l0,2.344l-14.31,0c0.249,1.773 0.839,3.384 1.768,4.832c1.271,1.982 2.989,2.973 5.152,2.973c1.547,0 2.937,-0.529 4.169,-1.587c0.868,-0.727 1.713,-2.045 2.534,-3.956l0.687,0.332c-0.584,2.858 -1.729,5.057 -3.434,6.596c-1.706,1.54 -3.593,2.31 -5.661,2.31c-2.464,0 -4.611,-1.034 -6.443,-3.103c-1.832,-2.069 -2.748,-4.864 -2.748,-8.385l0,-0.012l-3.361,0c-0.174,3.466 -1.447,6.289 -3.816,8.468c-2.195,2.021 -4.642,3.032 -7.342,3.032c-1.264,0 -2.547,-0.229 -3.849,-0.687c-1.303,-0.458 -2.633,-1.145 -3.991,-2.061l0,-8.752l-7.367,0l0,3.304c0,2.069 0.04,3.336 0.119,3.802c0.079,0.466 0.209,0.778 0.39,0.936c0.182,0.158 0.391,0.237 0.628,0.237c0.253,0 0.474,-0.056 0.663,-0.166c0.332,-0.206 0.971,-0.782 1.919,-1.729l0,1.326c-1.769,2.369 -3.458,3.553 -5.069,3.553c-0.774,0 -1.39,-0.268 -1.847,-0.805c-0.458,-0.537 -0.695,-1.453 -0.711,-2.748c-2.227,1.721 -3.624,2.716 -4.193,2.985c-0.852,0.394 -1.76,0.592 -2.723,0.592c-1.501,0 -2.736,-0.514 -3.707,-1.54c-0.971,-1.026 -1.457,-2.376 -1.457,-4.05c0,-1.058 0.237,-1.974 0.711,-2.748c0.628,-1.043 1.707,-2.026 3.238,-2.949l-3.949,0l0,-2.344l8.938,0c0.946,-0.38 1.994,-0.779 3.142,-1.197l0,-0.853c0,-2.163 -0.344,-3.647 -1.03,-4.453c-0.687,-0.805 -1.686,-1.208 -2.997,-1.208c-0.995,0 -1.784,0.269 -2.368,0.806c-0.6,0.537 -0.9,1.153 -0.9,1.847l0.047,1.374c0,0.726 -0.186,1.287 -0.557,1.682c-0.371,0.395 -0.856,0.592 -1.456,0.592c-0.585,0 -1.062,-0.205 -1.433,-0.616c-0.371,-0.41 -0.557,-0.971 -0.557,-1.682c0,-1.358 0.695,-2.605 2.084,-3.742c1.39,-1.137 3.34,-1.705 5.851,-1.705c1.926,0 3.505,0.323 4.737,0.971c0.932,0.489 1.619,1.255 2.061,2.297c0.284,0.679 0.426,2.069 0.426,4.169l0,1.718l7.367,0l0,-11.382c0,-2.463 -0.06,-3.979 -0.178,-4.548c-0.119,-0.568 -0.304,-0.955 -0.557,-1.16c-0.252,-0.206 -0.568,-0.308 -0.947,-0.308c-0.442,0 -0.995,0.126 -1.658,0.379l-0.332,-0.829l6.514,-2.653l1.066,0l0,15.728Zm11.007,7.117l-11.007,0l0,7.378c0.805,0.79 1.638,1.386 2.499,1.789c0.86,0.402 1.741,0.604 2.641,0.604c1.437,0 2.775,-0.79 4.014,-2.369c1.24,-1.579 1.86,-3.876 1.86,-6.893c0,-0.172 -0.002,-0.342 -0.007,-0.509Zm-26.19,0l-4.765,0c-1.171,0.669 -2.015,1.369 -2.53,2.096c-0.537,0.758 -0.806,1.587 -0.806,2.488c0,1.136 0.34,2.08 1.019,2.83c0.679,0.75 1.46,1.125 2.345,1.125c1.2,0 2.779,-0.789 4.737,-2.369l0,-6.17Zm25.936,-2.344c-0.291,-1.436 -0.824,-2.62 -1.599,-3.554c-1.239,-1.492 -2.648,-2.238 -4.228,-2.238c-0.836,0 -1.673,0.213 -2.51,0.64c-0.632,0.315 -1.437,0.947 -2.416,1.894l0,3.258l10.753,0Z"></path>
</symbol><symbol viewBox="0 0 64 64" id="zixfont-subscript">
  <path d="M49.442,46.379l-3.913,3.316c-0.976,0.816 -1.942,1.822 -2.898,3.017l7.468,0c0.836,0 1.414,-0.249 1.733,-0.747c0.258,-0.418 0.577,-1.444 0.955,-3.077l1.016,0l-0.448,6.214l-13.412,0l0,-0.837c1.015,-1.175 1.981,-2.27 2.897,-3.286c0.02,-0.02 0.886,-0.975 2.599,-2.867c0.737,-0.817 1.474,-1.633 2.211,-2.45c0.975,-1.075 1.722,-2.185 2.24,-3.33c0.518,-1.145 0.777,-2.216 0.777,-3.211c0,-1.215 -0.329,-2.181 -0.986,-2.898c-0.657,-0.717 -1.593,-1.075 -2.808,-1.075c-1.354,0 -2.489,0.328 -3.405,0.985c-0.837,0.598 -1.255,1.285 -1.255,2.061c0,0.299 0.07,0.503 0.209,0.613c0.139,0.109 0.398,0.214 0.777,0.314c0.995,0.298 1.493,0.896 1.493,1.792c0,0.518 -0.169,0.936 -0.508,1.254c-0.338,0.319 -0.766,0.478 -1.284,0.478c-0.637,0 -1.175,-0.278 -1.613,-0.836c-0.438,-0.558 -0.657,-1.275 -0.657,-2.151c0,-1.653 0.612,-3.012 1.837,-4.077c1.225,-1.066 2.793,-1.598 4.705,-1.598c1.872,0 3.415,0.527 4.63,1.583c1.214,1.055 1.822,2.409 1.822,4.062c0,1.116 -0.344,2.221 -1.031,3.316c-0.687,1.095 -1.737,2.24 -3.151,3.435Zm-39.245,-23.125l0,-1.793l11.631,0l0,1.793c-0.922,0 -1.631,0.077 -2.127,0.23c-0.495,0.154 -0.742,0.419 -0.742,0.795c0,0.341 0.17,0.683 0.512,1.024l4.099,5.483l4.048,-5.073c0.102,-0.102 0.213,-0.282 0.333,-0.538c0.119,-0.256 0.179,-0.452 0.179,-0.589c0,-0.376 -0.265,-0.666 -0.794,-0.871c-0.53,-0.205 -1.324,-0.359 -2.383,-0.461l0,-1.793l10.145,0l0,1.793c-1.229,0.171 -2.305,0.495 -3.228,0.973c-0.922,0.479 -1.725,1.162 -2.408,2.05l-4.662,5.892l7.378,9.633c0.58,0.717 1.17,1.187 1.767,1.409c0.598,0.222 1.392,0.333 2.383,0.333l0,1.947l-12.246,0l0,-1.947l0.871,0c1.606,0 2.408,-0.256 2.408,-0.769c0,-0.136 -0.051,-0.307 -0.153,-0.512c-0.103,-0.205 -0.205,-0.359 -0.308,-0.461l-4.816,-6.354l-3.894,4.97c-0.273,0.342 -0.47,0.641 -0.589,0.897c-0.12,0.256 -0.18,0.521 -0.18,0.794c0,0.957 1.076,1.435 3.228,1.435l0,1.947l-10.452,0l0,-1.947c1.161,0 2.22,-0.299 3.177,-0.897c0.956,-0.598 1.895,-1.46 2.818,-2.587l4.765,-6.046l-7.071,-9.121c-0.41,-0.546 -0.922,-0.956 -1.537,-1.229c-0.615,-0.273 -1.332,-0.41 -2.152,-0.41Z"></path>
</symbol><symbol viewBox="0 0 64 64" id="zixfont-superscript">
  <path d="M10.197,23.254l-0,-1.793l11.631,0l-0,1.793c-0.922,0 -1.631,0.077 -2.127,0.23c-0.495,0.154 -0.742,0.419 -0.742,0.795c-0,0.341 0.17,0.683 0.512,1.024l4.099,5.483l4.048,-5.073c0.102,-0.102 0.213,-0.282 0.333,-0.538c0.119,-0.256 0.179,-0.452 0.179,-0.589c0,-0.376 -0.265,-0.666 -0.794,-0.871c-0.53,-0.205 -1.324,-0.359 -2.383,-0.461l0,-1.793l10.145,0l0,1.793c-1.229,0.171 -2.305,0.495 -3.228,0.973c-0.922,0.479 -1.725,1.162 -2.408,2.05l-4.662,5.892l7.378,9.633c0.58,0.717 1.17,1.187 1.767,1.409c0.598,0.222 1.392,0.333 2.383,0.333l0,1.947l-12.246,0l0,-1.947l0.871,0c1.606,0 2.408,-0.256 2.408,-0.769c0,-0.136 -0.051,-0.307 -0.153,-0.512c-0.103,-0.205 -0.205,-0.359 -0.308,-0.461l-4.816,-6.354l-3.894,4.97c-0.273,0.342 -0.47,0.641 -0.589,0.897c-0.12,0.256 -0.18,0.521 -0.18,0.794c0,0.957 1.076,1.435 3.228,1.435l0,1.947l-10.452,0l0,-1.947c1.161,0 2.22,-0.299 3.177,-0.897c0.956,-0.598 1.895,-1.46 2.818,-2.587l4.765,-6.046l-7.071,-9.121c-0.41,-0.546 -0.922,-0.956 -1.537,-1.229c-0.615,-0.273 -1.332,-0.41 -2.152,-0.41Zm39.245,-1.348l-3.913,3.315c-0.976,0.817 -1.942,1.823 -2.898,3.017l7.468,0c0.836,0 1.414,-0.248 1.733,-0.746c0.258,-0.418 0.577,-1.444 0.955,-3.077l1.016,0l-0.448,6.213l-13.412,0l-0,-0.836c1.015,-1.175 1.981,-2.27 2.897,-3.286c0.02,-0.02 0.886,-0.976 2.599,-2.868c0.737,-0.816 1.474,-1.633 2.211,-2.449c0.975,-1.076 1.722,-2.186 2.24,-3.331c0.518,-1.145 0.777,-2.215 0.777,-3.211c-0,-1.215 -0.329,-2.181 -0.986,-2.897c-0.657,-0.717 -1.593,-1.076 -2.808,-1.076c-1.354,0 -2.489,0.329 -3.405,0.986c-0.837,0.597 -1.255,1.284 -1.255,2.061c-0,0.299 0.07,0.503 0.209,0.612c0.139,0.11 0.398,0.214 0.777,0.314c0.995,0.299 1.493,0.896 1.493,1.792c-0,0.518 -0.169,0.936 -0.508,1.255c-0.338,0.319 -0.766,0.478 -1.284,0.478c-0.637,0 -1.175,-0.279 -1.613,-0.837c-0.438,-0.557 -0.657,-1.274 -0.657,-2.15c-0,-1.653 0.612,-3.012 1.837,-4.078c1.225,-1.065 2.793,-1.598 4.705,-1.598c1.872,0 3.415,0.528 4.63,1.583c1.214,1.056 1.822,2.41 1.822,4.063c-0,1.115 -0.344,2.22 -1.031,3.316c-0.687,1.095 -1.737,2.24 -3.151,3.435Z"></path>
</symbol><symbol viewBox="0 0 64 64" id="zixfont-switchOff">
  <path d="M27.413,0l9.174,0l-0,37.013l-9.174,0l0,-37.013Zm-18.026,9.387l6.453,6.453c-2.133,2.098 -3.787,4.542 -4.96,7.333c-1.173,2.791 -1.76,5.734 -1.76,8.827c0,4.16 1.022,7.991 3.067,11.493c2.044,3.503 4.817,6.276 8.32,8.32c3.502,2.045 7.333,3.067 11.493,3.067c4.16,0 7.991,-1.022 11.493,-3.067c3.503,-2.044 6.276,-4.817 8.32,-8.32c2.045,-3.502 3.067,-7.333 3.067,-11.493c0,-2.062 -0.276,-4.08 -0.827,-6.053c-0.551,-1.974 -1.315,-3.805 -2.293,-5.494c-0.978,-1.689 -2.178,-3.226 -3.6,-4.613l6.453,-6.453c2.951,2.951 5.254,6.373 6.907,10.266c1.653,3.894 2.48,8.009 2.48,12.347c0,5.796 -1.431,11.147 -4.293,16.053c-2.863,4.907 -6.747,8.791 -11.654,11.654c-4.906,2.862 -10.257,4.293 -16.053,4.293c-5.796,0 -11.147,-1.431 -16.053,-4.293c-4.907,-2.863 -8.791,-6.747 -11.654,-11.654c-2.862,-4.906 -4.293,-10.257 -4.293,-16.053c0,-2.916 0.382,-5.751 1.147,-8.507c0.764,-2.755 1.84,-5.315 3.226,-7.68c1.387,-2.364 3.058,-4.506 5.014,-6.426Z"></path>
</symbol><symbol viewBox="0 0 64 64" id="zixfont-today">
  <path d="M50.114,33.848l-19.694,17.981c-0.258,0.213 -0.553,0.315 -0.885,0.315c-0.332,-0 -0.627,-0.102 -0.885,-0.315l-11.076,-10.113c-0.228,-0.236 -0.345,-0.505 -0.345,-0.808c0,-0.303 0.117,-0.562 0.345,-0.775l1.77,-1.61c0.233,-0.214 0.516,-0.32 0.848,-0.32c0.332,-0 0.627,0.106 0.885,0.32l8.458,7.722l17.076,-15.591c0.258,-0.208 0.553,-0.314 0.885,-0.314c0.332,-0 0.615,0.106 0.848,0.314l1.77,1.616c0.228,0.208 0.345,0.466 0.345,0.775c-0,0.303 -0.117,0.572 -0.345,0.803Zm-45.19,24.581l54.152,0l0,-35.958l-54.152,0l-0,35.958Zm14.764,-42.698l0,-10.113c0,-0.332 -0.111,-0.601 -0.344,-0.808c-0.228,-0.214 -0.523,-0.315 -0.885,-0.315l-2.459,0c-0.363,0 -0.658,0.101 -0.885,0.315c-0.234,0.207 -0.35,0.476 -0.35,0.808l-0,10.113c-0,0.325 0.116,0.595 0.35,0.808c0.227,0.208 0.522,0.315 0.885,0.315l2.459,-0c0.362,-0 0.657,-0.107 0.885,-0.315c0.233,-0.213 0.344,-0.483 0.344,-0.808Zm29.541,0l0,-10.113c0,-0.332 -0.116,-0.601 -0.35,-0.808c-0.227,-0.214 -0.522,-0.315 -0.879,-0.315l-2.465,0c-0.356,0 -0.651,0.101 -0.885,0.315c-0.227,0.207 -0.344,0.476 -0.344,0.808l-0,10.113c-0,0.325 0.117,0.595 0.344,0.808c0.234,0.208 0.529,0.315 0.885,0.315l2.465,-0c0.357,-0 0.652,-0.107 0.879,-0.315c0.234,-0.213 0.35,-0.483 0.35,-0.808Zm14.771,-2.25l-0,44.948c-0,1.218 -0.492,2.273 -1.463,3.165c-0.977,0.887 -2.133,1.33 -3.461,1.33l-54.152,0c-1.334,0 -2.49,-0.443 -3.461,-1.33c-0.977,-0.892 -1.463,-1.947 -1.463,-3.165l-0,-44.948c-0,-1.218 0.486,-2.268 1.463,-3.16c0.971,-0.887 2.127,-1.33 3.461,-1.33l4.923,-0l0,-3.373c0,-1.543 0.602,-2.868 1.807,-3.968c1.205,-1.1 2.649,-1.65 4.346,-1.65l2.459,-0c1.69,-0 3.141,0.55 4.345,1.65c1.205,1.1 1.808,2.425 1.808,3.968l-0,3.373l14.77,-0l0,-3.373c0,-1.543 0.603,-2.868 1.807,-3.968c1.205,-1.1 2.656,-1.65 4.346,-1.65l2.465,-0c1.69,-0 3.141,0.55 4.346,1.65c1.205,1.1 1.807,2.425 1.807,3.968l-0,3.373l4.923,-0c1.328,-0 2.484,0.443 3.461,1.33c0.971,0.892 1.463,1.942 1.463,3.16Z"></path>
</symbol><symbol viewBox="0 0 64 64" id="zixfont-underline">
  <path d="M53.979,53.202l-43.959,0l0,2.798l43.959,0l0,-2.798Zm-15.085,-41.213l0,-1.049l13.619,0l0,1.049l-1.447,0c-1.513,0 -2.676,0.634 -3.49,1.901c-0.397,0.587 -0.595,1.948 -0.595,4.086l0,15.605c0,3.858 -0.383,6.852 -1.149,8.979c-0.767,2.128 -2.27,3.954 -4.512,5.476c-2.241,1.523 -5.291,2.284 -9.15,2.284c-4.199,0 -7.386,-0.728 -9.561,-2.184c-2.175,-1.457 -3.717,-3.414 -4.625,-5.873c-0.605,-1.684 -0.908,-4.843 -0.908,-9.477l0,-15.037c0,-2.364 -0.326,-3.916 -0.979,-4.653c-0.652,-0.738 -1.707,-1.107 -3.163,-1.107l-1.447,0l0,-1.049l16.626,0l0,1.049l-1.475,0c-1.589,0 -2.724,0.502 -3.405,1.504c-0.473,0.681 -0.709,2.1 -0.709,4.256l0,16.768c0,1.494 0.137,3.206 0.411,5.135c0.274,1.93 0.771,3.433 1.49,4.512c0.718,1.078 1.754,1.967 3.106,2.667c1.353,0.699 3.013,1.049 4.98,1.049c2.515,0 4.766,-0.548 6.752,-1.645c1.986,-1.097 3.344,-2.502 4.072,-4.214c0.728,-1.711 1.092,-4.61 1.092,-8.696l0,-15.576c0,-2.402 -0.265,-3.906 -0.794,-4.511c-0.738,-0.833 -1.835,-1.249 -3.292,-1.249l-1.447,0Z"></path>
</symbol><symbol viewBox="0 0 64 64" id="zixfont-unlock">
  <path d="M12.301,22l0,-2.301c0,-10.863 8.836,-19.699 19.699,-19.699c10.863,-0 19.699,8.836 19.699,19.699l-0,12.301l4.301,-0l0,32l-48,-0l0,-32l35.93,-0l0,-12.301c0,-6.579 -5.351,-11.93 -11.93,-11.93c-6.579,-0 -11.93,5.351 -11.93,11.93l-0,2.301l-7.769,0Zm24.742,34l-2.71,-7.821c1.736,-0.864 2.939,-2.635 2.939,-4.704c-0,-2.914 -2.36,-5.271 -5.272,-5.271c-2.912,-0 -5.272,2.359 -5.272,5.271c0,2.067 1.203,3.84 2.939,4.704l-2.712,7.821l10.088,0Z"></path>
</symbol><symbol viewBox="0 0 64 64" id="zixfont-unorderedList">
  <path d="M4,50.617c2.208,0 4,1.792 4,4c0,2.208 -1.792,4 -4,4c-2.208,0 -4,-1.792 -4,-4c0,-2.208 1.792,-4 4,-4Zm60,1.5l-51,0l0,5l51,0l0,-5Zm-60,-22.617c2.208,0 4,1.792 4,4c0,2.208 -1.792,4 -4,4c-2.208,0 -4,-1.792 -4,-4c0,-2.208 1.792,-4 4,-4Zm60,1.308l-51,0l0,5l51,0l0,-5Zm-60,-22.808c2.208,0 4,1.792 4,4c0,2.208 -1.792,4 -4,4c-2.208,0 -4,-1.792 -4,-4c0,-2.208 1.792,-4 4,-4Zm60,1.5l-51,0l0,5l51,0l0,-5Z"></path>
</symbol><symbol viewBox="0 0 64 64" id="zixfont-upload">
  <path d="M64,41.512l-10,-0l-0,12.488l-44,0l-0,-12.488l-10,-0l-0,20.894c-0,0.944 0.72,1.594 1.6,1.594l60.8,-0c0.88,-0 1.6,-0.65 1.6,-1.594l-0,-20.894Zm-27,2.748l-10,0l0,-19.739l-13.286,-0l18.286,-24.521l18.286,24.521l-13.286,-0l0,19.739Z"></path>
</symbol><symbol viewBox="0 0 64 64" id="zixfont-uppercase">
  <path d="M59.82,33.638l2.949,0.744c-0.618,2.422 -1.73,4.269 -3.336,5.54c-1.606,1.272 -3.569,1.907 -5.889,1.907c-2.402,0 -4.355,-0.488 -5.859,-1.466c-1.505,-0.978 -2.65,-2.394 -3.435,-4.248c-0.785,-1.854 -1.178,-3.845 -1.178,-5.973c0,-2.32 0.443,-4.344 1.33,-6.072c0.886,-1.727 2.148,-3.039 3.784,-3.936c1.637,-0.897 3.438,-1.345 5.403,-1.345c2.229,0 4.104,0.567 5.624,1.702c1.519,1.135 2.578,2.731 3.176,4.788l-2.903,0.683c-0.517,-1.621 -1.266,-2.801 -2.249,-3.541c-0.983,-0.739 -2.219,-1.109 -3.709,-1.109c-1.712,0 -3.143,0.41 -4.293,1.231c-1.15,0.821 -1.958,1.922 -2.424,3.305c-0.466,1.384 -0.699,2.81 -0.699,4.279c0,1.895 0.276,3.549 0.828,4.962c0.552,1.413 1.411,2.47 2.576,3.169c1.165,0.699 2.427,1.049 3.784,1.049c1.652,0 3.05,-0.477 4.195,-1.429c1.145,-0.952 1.92,-2.366 2.325,-4.24Zm-59.866,7.812l8.557,-22.281l3.176,0l9.119,22.281l-3.358,0l-2.599,-6.749l-9.317,0l-2.447,6.749l-3.131,0Zm23.087,0l0,-22.281l8.359,0c1.702,0 3.067,0.225 4.096,0.676c1.028,0.451 1.834,1.145 2.416,2.082c0.583,0.938 0.874,1.918 0.874,2.941c0,0.953 -0.258,1.849 -0.775,2.69c-0.517,0.841 -1.297,1.52 -2.341,2.037c1.348,0.395 2.384,1.069 3.108,2.021c0.725,0.953 1.087,2.077 1.087,3.374c0,1.044 -0.22,2.014 -0.661,2.911c-0.441,0.896 -0.985,1.588 -1.634,2.074c-0.648,0.487 -1.461,0.854 -2.439,1.102c-0.978,0.248 -2.176,0.373 -3.595,0.373l-8.495,0Zm2.948,-2.63l5.547,0c0.953,0 1.622,-0.035 2.007,-0.106c0.678,-0.122 1.246,-0.324 1.702,-0.608c0.456,-0.284 0.831,-0.697 1.125,-1.239c0.293,-0.542 0.44,-1.167 0.44,-1.877c0,-0.831 -0.213,-1.552 -0.638,-2.165c-0.426,-0.613 -1.016,-1.044 -1.771,-1.292c-0.755,-0.249 -1.841,-0.373 -3.26,-0.373l-5.152,0l0,7.66Zm-19.606,-6.52l7.554,0l-2.326,-6.17c-0.709,-1.875 -1.236,-3.415 -1.58,-4.621c-0.284,1.429 -0.684,2.848 -1.201,4.256l-2.447,6.535Zm19.606,-3.769l4.818,0c1.307,0 2.244,-0.086 2.812,-0.258c0.749,-0.223 1.314,-0.593 1.694,-1.11c0.38,-0.517 0.57,-1.165 0.57,-1.945c0,-0.74 -0.177,-1.391 -0.532,-1.953c-0.354,-0.563 -0.861,-0.948 -1.52,-1.155c-0.658,-0.208 -1.788,-0.312 -3.389,-0.312l-4.453,0l0,6.733Z"></path>
</symbol><symbol viewBox="0 0 64 64" id="zixfont-users">
  <path d="M42.967,50.593c2.415,0.965 15.82,6.157 16.912,7.244c1.09,1.09 0.964,6.161 0.964,6.161l-57.481,-0c-0,-0 -0.124,-5.071 0.966,-6.161c1.09,-1.087 14.495,-6.279 16.909,-7.244c2.415,-0.966 3.379,-3.622 3.379,-3.622c0,0 1.088,0.602 1.088,-1.088c0,-1.689 -1.088,1.088 -2.174,-5.435c0,0 -3.018,-0.847 -2.414,-7.85l0.719,-0.241c-0.604,-1.207 -1.208,-6.883 -1.208,-7.73c0,-0.847 1.208,-4.226 1.933,-4.951c0.723,-0.725 2.534,-0.847 2.534,-0.847c0,-0.845 2.417,-2.413 5.316,-2.534c2.899,-0.124 1.446,-0.365 5.433,0.845c3.987,1.209 4.71,2.899 6.523,5.435c1.811,2.536 -0,10.023 -0,10.023l0.725,0c0.602,7.003 -2.415,7.85 -2.415,7.85c-1.087,6.523 -2.175,3.746 -2.175,5.435c-0,1.69 1.088,1.088 1.088,1.088c-0,0 0.964,2.656 3.378,3.622Zm-26.6,-0.367c-10.3,4.102 -12.79,5.348 -13.549,6.105c-1.427,1.423 -1.653,4.941 -1.591,7.667l-1.227,-0l-0,-11.165c0.198,-0.077 0.365,-0.145 0.495,-0.196c2.048,-0.815 2.865,-3.07 2.865,-3.07c-0,0 0.921,0.51 0.921,-0.921c0,-1.432 -0.921,0.921 -1.843,-4.606c0,0 -2.555,-0.716 -2.046,-6.653l0.611,-0.205c-0.451,-0.902 -0.901,-4.733 -1.001,-6.126l0,-0.599c0.111,-0.903 1.037,-3.443 1.615,-4.021c0.614,-0.615 2.15,-0.717 2.15,-0.717c0,-0.719 2.048,-2.048 4.505,-2.15c2.455,-0.105 1.229,-0.307 4.606,0.717c3.376,1.023 3.991,2.457 5.527,4.605c0.437,0.612 0.62,1.566 0.665,2.615l-0.081,0.909c-0.066,0.768 -0.087,1.467 -0.079,2.124c-0.2,1.585 -0.505,2.846 -0.505,2.846l0.614,0c0.512,5.937 -2.046,6.653 -2.046,6.653c-0.921,5.527 -1.843,3.174 -1.843,4.606c0,1.431 0.922,0.921 0.922,0.921c-0,0 0.104,0.277 0.315,0.661Zm47.633,-19.317l-0.006,-0l-0,2.508c-0.165,2.072 -0.623,3.97 -0.623,3.97l0.616,0c0.004,0.039 0.004,0.071 0.007,0.109l-0,2.617c-0.34,3.439 -2.055,3.927 -2.055,3.927c-0.919,5.527 -1.843,3.174 -1.843,4.606c0,1.431 0.924,0.921 0.924,0.921c0,0 0.819,2.253 2.865,3.07c0.03,0.013 0.077,0.032 0.111,0.045l-0,11.318l-1.024,-0c0.062,-2.728 -0.162,-6.244 -1.591,-7.666c-0.751,-0.756 -3.219,-1.993 -13.394,-6.046c0.234,-0.418 0.347,-0.721 0.347,-0.721c0,0 0.922,0.51 0.922,-0.921c-0,-1.432 -0.92,0.921 -1.841,-4.606c-0,0 -2.558,-0.716 -2.048,-6.653l0.61,-0.205c-0.256,-0.509 -0.512,-1.968 -0.704,-3.389c-0.01,-0.446 -0.015,-0.883 -0.057,-1.376l-0.171,-1.948l-0.07,0c0.104,-0.893 1.039,-3.453 1.617,-4.033c0.616,-0.615 2.15,-0.717 2.15,-0.717c-0,-0.719 2.048,-2.048 4.503,-2.15c2.457,-0.105 1.228,-0.307 4.607,0.717c3.375,1.023 3.991,2.455 5.525,4.605c0.352,0.493 0.538,1.212 0.623,2.018Z"></path>
</symbol><symbol viewBox="0 0 64 64" id="zixfont-world">
  <path d="M63.923,29.867c-1.049,-15.975 -13.815,-28.745 -29.79,-29.794l0,-0.073l-4.266,-0l-0,0.073c-15.975,1.049 -28.745,13.819 -29.794,29.794l-0.073,-0l-0,4.266l0.073,0c1.049,15.975 13.819,28.741 29.794,29.79l-0,0.077l4.266,0l0,-0.077c15.975,-1.049 28.741,-13.815 29.79,-29.79l0.077,0l0,-4.266l-0.077,-0Zm-43.891,-22.891c-2.061,2.739 -3.772,6.174 -5.018,10.091l-6.391,-0c2.782,-4.34 6.733,-7.851 11.409,-10.091Zm-13.641,14.357l7.501,0c-0.571,2.697 -0.934,5.56 -1.049,8.534l-8.495,-0c0.226,-3.004 0.934,-5.876 2.043,-8.534Zm-2.043,12.8l8.495,0c0.115,2.974 0.478,5.837 1.049,8.534l-7.501,-0c-1.109,-2.658 -1.817,-5.53 -2.043,-8.534Zm4.275,12.8l6.387,0c1.246,3.917 2.957,7.352 5.022,10.091c-4.676,-2.24 -8.627,-5.747 -11.409,-10.091Zm21.244,12.527c-4.386,-1.173 -8.162,-5.883 -10.454,-12.527l10.454,0l-0,12.527Zm-0,-16.793l-11.653,-0c-0.601,-2.658 -0.981,-5.53 -1.105,-8.534l12.758,0l-0,8.534Zm-0,-12.8l-12.758,-0c0.124,-3.004 0.504,-5.876 1.105,-8.534l11.653,0l-0,8.534Zm-0,-12.8l-10.454,-0c2.292,-6.644 6.068,-11.354 10.454,-12.523l-0,12.523Zm25.51,-0l-6.383,-0c-1.25,-3.917 -2.957,-7.352 -5.026,-10.091c4.672,2.24 8.627,5.751 11.409,10.091Zm-21.244,-12.523c4.382,1.169 8.162,5.879 10.454,12.523l-10.454,-0l0,-12.523Zm0,16.789l11.648,0c0.606,2.658 0.977,5.53 1.11,8.534l-12.758,-0l0,-8.534Zm0,12.8l12.758,0c-0.124,3.004 -0.504,5.876 -1.11,8.534l-11.648,-0l0,-8.534Zm0,25.327l0,-12.527l10.454,0c-2.292,6.644 -6.072,11.354 -10.454,12.527Zm9.835,-2.436c2.061,-2.743 3.776,-6.174 5.026,-10.091l6.383,0c-2.782,4.344 -6.737,7.851 -11.409,10.091Zm13.641,-14.357l-7.501,-0c0.571,-2.697 0.934,-5.56 1.049,-8.534l8.491,0c-0.222,3.004 -0.93,5.876 -2.039,8.534Zm-6.452,-12.8c-0.115,-2.974 -0.478,-5.837 -1.049,-8.534l7.501,0c1.109,2.658 1.817,5.53 2.043,8.534l-8.495,-0Z"></path>
</symbol><symbol viewBox="0 0 64 64" id="zixfont-zoomIn">
  <path d="M46.967,41.311c3.149,-4.301 5.033,-9.584 5.033,-15.311c-0,-14.336 -11.664,-26 -26,-26c-14.336,0 -26,11.664 -26,26c-0,14.336 11.664,26 26,26c5.727,0 11.01,-1.884 15.311,-5.033l17.033,17.033l5.656,-5.656c-0,-0 -17.033,-17.033 -17.033,-17.033Zm-20.967,2.689c-9.926,0 -18,-8.074 -18,-18c0,-9.925 8.074,-18 18,-18c9.926,0 18,8.075 18,18c-0,9.926 -8.074,18 -18,18Zm3.651,-29l-0,7.349l7.349,0l-0,7.302l-7.349,-0l-0,7.349l-7.302,-0l0,-7.349l-7.349,-0l0,-7.302l7.349,0l0,-7.349l7.302,0Z"></path>
</symbol><symbol viewBox="0 0 64 64" id="zixfont-zoomOut">
  <path d="M46.967,41.311c3.149,-4.301 5.033,-9.584 5.033,-15.311c-0,-14.336 -11.664,-26 -26,-26c-14.336,0 -26,11.664 -26,26c-0,14.336 11.664,26 26,26c5.727,0 11.01,-1.884 15.311,-5.033l17.033,17.033l5.656,-5.656c-0,-0 -17.033,-17.033 -17.033,-17.033Zm-20.967,2.689c-9.926,0 -18,-8.074 -18,-18c0,-9.925 8.074,-18 18,-18c9.926,0 18,8.075 18,18c-0,9.926 -8.074,18 -18,18Zm-11,-21.651l22,0l-0,7.302l-22,-0l-0,-7.302Z"></path>
</symbol></svg>